<?xml version="1.0" encoding="UTF-8" standalone="no"?>
<svg
   width="180mm"
   height="105mm"
   viewBox="0 0 510.23623 297.6378"
   version="1.1"
   id="svg130"
   sodipodi:docname="freqspektrum.svg"
   inkscape:export-filename="freqspektrum.pdf"
   inkscape:export-xdpi="96"
   inkscape:export-ydpi="96"
   inkscape:version="1.4 (86a8ad7, 2024-10-11)"
   xmlns:inkscape="http://www.inkscape.org/namespaces/inkscape"
   xmlns:sodipodi="http://sodipodi.sourceforge.net/DTD/sodipodi-0.dtd"
   xmlns:xlink="http://www.w3.org/1999/xlink"
   xmlns="http://www.w3.org/2000/svg"
   xmlns:svg="http://www.w3.org/2000/svg"
   xmlns:rdf="http://www.w3.org/1999/02/22-rdf-syntax-ns#"
   xmlns:cc="http://creativecommons.org/ns#"
   xmlns:dc="http://purl.org/dc/elements/1.1/">
  <sodipodi:namedview
     id="namedview130"
     pagecolor="#ffffff"
     bordercolor="#000000"
     borderopacity="0.25"
     inkscape:showpageshadow="2"
     inkscape:pageopacity="0.0"
     inkscape:pagecheckerboard="0"
     inkscape:deskcolor="#d1d1d1"
     inkscape:document-units="pt"
     inkscape:zoom="1.2263437"
     inkscape:cx="464.38856"
     inkscape:cy="307.8256"
     inkscape:window-width="1920"
     inkscape:window-height="1129"
     inkscape:window-x="4472"
     inkscape:window-y="233"
     inkscape:window-maximized="1"
     inkscape:current-layer="svg130" />
  <metadata
     id="metadata1">
    <rdf:RDF>
      <cc:Work>
        <dc:type
           rdf:resource="http://purl.org/dc/dcmitype/StillImage" />
        <dc:date>2025-02-26T16:43:46.776005</dc:date>
        <dc:format>image/svg+xml</dc:format>
        <dc:creator>
          <cc:Agent>
            <dc:title>Matplotlib v3.10.0, https://matplotlib.org/</dc:title>
          </cc:Agent>
        </dc:creator>
      </cc:Work>
    </rdf:RDF>
  </metadata>
  <defs
     id="defs1">
    <style
       type="text/css"
       id="style1">*{stroke-linejoin: round; stroke-linecap: butt}</style>
  </defs>
  <g
     id="figure_1">
    <g
       id="patch_1">
      <path
         d="M 0,283.46457 H 510.23622 V 0 H 0 Z"
         style="fill:#ffffff"
         id="path1" />
    </g>
    <g
       id="axes_1">
      <g
         id="patch_2">
        <path
           d="M 63.779528,252.28346 H 459.2126 V 34.015748 H 63.779528 Z"
           style="fill:#ffffff"
           id="path2" />
      </g>
      <g
         id="matplotlib.axis_1">
        <g
           id="xtick_1">
          <g
             id="line2d_1">
            <path
               d="M 81.753758,252.28346 V 34.015748"
               clip-path="url(#p8b67f7faed)"
               style="fill:none;stroke:#b0b0b0;stroke-width:0.8;stroke-linecap:square"
               id="path3" />
          </g>
          <g
             id="line2d_2">
            <defs
               id="defs3">
              <path
                 id="mc8f2f3013e"
                 d="M 0,0 V 3.5"
                 style="stroke:#000000;stroke-width:0.8" />
            </defs>
            <g
               id="g3">
              <use
                 xlink:href="#mc8f2f3013e"
                 x="81.753761"
                 y="252.28346"
                 style="stroke:#000000;stroke-width:0.8"
                 id="use3" />
            </g>
          </g>
          <g
             id="text_1">
            <!-- 0 -->
            <g
               transform="matrix(0.1,0,0,-0.1,78.973289,266.44128)"
               id="g4">
              <defs
                 id="defs4">
                <path
                   id="ArialMT-30"
                   d="m 266,2259 q 0,813 167,1308 167,496 496,764 330,269 830,269 369,0 647,-149 278,-148 459,-428 182,-279 285,-681 103,-401 103,-1083 0,-806 -166,-1301 Q 2922,463 2592,192 2263,-78 1759,-78 1097,-78 719,397 266,969 266,2259 Z m 578,0 q 0,-1128 264,-1502 264,-373 651,-373 388,0 652,375 264,375 264,1500 0,1132 -264,1503 -264,372 -658,372 -387,0 -619,-328 Q 844,3388 844,2259 Z"
                   transform="scale(0.015625)" />
              </defs>
              <use
                 xlink:href="#ArialMT-30"
                 id="use4" />
            </g>
          </g>
        </g>
        <g
           id="xtick_2">
          <g
             id="line2d_3">
            <path
               d="M 146.96639,252.28346 V 34.015748"
               clip-path="url(#p8b67f7faed)"
               style="fill:none;stroke:#b0b0b0;stroke-width:0.8;stroke-linecap:square"
               id="path4" />
          </g>
          <g
             id="line2d_4">
            <g
               id="g5">
              <use
                 xlink:href="#mc8f2f3013e"
                 x="146.96638"
                 y="252.28346"
                 style="stroke:#000000;stroke-width:0.8"
                 id="use5" />
            </g>
          </g>
          <g
             id="text_2">
            <!-- 2000 -->
            <g
               transform="matrix(0.1,0,0,-0.1,135.84451,266.44128)"
               id="g9">
              <defs
                 id="defs5">
                <path
                   id="ArialMT-32"
                   d="M 3222,541 V 0 H 194 q -6,203 65,391 116,309 370,609 255,300 737,694 747,612 1009,970 263,358 263,677 0,334 -240,563 -239,230 -623,230 -406,0 -650,-244 -244,-243 -247,-674 l -578,59 q 59,647 446,986 388,339 1042,339 659,0 1043,-366 385,-365 385,-906 0,-275 -113,-541 Q 2991,2522 2730,2228 2469,1934 1863,1422 1356,997 1212,845 1069,694 975,541 Z"
                   transform="scale(0.015625)" />
              </defs>
              <use
                 xlink:href="#ArialMT-32"
                 id="use6" />
              <use
                 xlink:href="#ArialMT-30"
                 transform="translate(55.615234)"
                 id="use7" />
              <use
                 xlink:href="#ArialMT-30"
                 transform="translate(111.23047)"
                 id="use8" />
              <use
                 xlink:href="#ArialMT-30"
                 transform="translate(166.8457)"
                 id="use9" />
            </g>
          </g>
        </g>
        <g
           id="xtick_3">
          <g
             id="line2d_5">
            <path
               d="M 212.17901,252.28346 V 34.015748"
               clip-path="url(#p8b67f7faed)"
               style="fill:none;stroke:#b0b0b0;stroke-width:0.8;stroke-linecap:square"
               id="path9" />
          </g>
          <g
             id="line2d_6">
            <g
               id="g10">
              <use
                 xlink:href="#mc8f2f3013e"
                 x="212.17902"
                 y="252.28346"
                 style="stroke:#000000;stroke-width:0.8"
                 id="use10" />
            </g>
          </g>
          <g
             id="text_3">
            <!-- 4000 -->
            <g
               transform="matrix(0.1,0,0,-0.1,201.05714,266.44128)"
               id="g14">
              <defs
                 id="defs10">
                <path
                   id="ArialMT-34"
                   d="M 2069,0 V 1097 H 81 v 516 l 2091,2968 h 459 V 1613 h 619 V 1097 H 2631 V 0 Z m 0,1613 V 3678 L 634,1613 Z"
                   transform="scale(0.015625)" />
              </defs>
              <use
                 xlink:href="#ArialMT-34"
                 id="use11" />
              <use
                 xlink:href="#ArialMT-30"
                 transform="translate(55.615234)"
                 id="use12" />
              <use
                 xlink:href="#ArialMT-30"
                 transform="translate(111.23047)"
                 id="use13" />
              <use
                 xlink:href="#ArialMT-30"
                 transform="translate(166.8457)"
                 id="use14" />
            </g>
          </g>
        </g>
        <g
           id="xtick_4">
          <g
             id="line2d_7">
            <path
               d="M 277.39164,252.28346 V 34.015748"
               clip-path="url(#p8b67f7faed)"
               style="fill:none;stroke:#b0b0b0;stroke-width:0.8;stroke-linecap:square"
               id="path14" />
          </g>
          <g
             id="line2d_8">
            <g
               id="g15">
              <use
                 xlink:href="#mc8f2f3013e"
                 x="277.39163"
                 y="252.28346"
                 style="stroke:#000000;stroke-width:0.8"
                 id="use15" />
            </g>
          </g>
          <g
             id="text_4">
            <!-- 6000 -->
            <g
               transform="matrix(0.1,0,0,-0.1,266.26977,266.44128)"
               id="g19">
              <defs
                 id="defs15">
                <path
                   id="ArialMT-36"
                   d="m 3184,3459 -559,-43 q -75,331 -212,481 -229,241 -563,241 -269,0 -472,-150 -265,-194 -419,-566 -153,-372 -159,-1059 203,309 497,459 294,150 616,150 562,0 957,-414 396,-414 396,-1070 0,-432 -186,-802 Q 2894,316 2569,119 2244,-78 1831,-78 1128,-78 684,439 241,956 241,2144 q 0,1328 490,1931 428,525 1153,525 541,0 886,-303 346,-303 414,-838 z M 888,1484 q 0,-290 123,-556 123,-265 345,-405 222,-139 466,-139 356,0 612,287 257,288 257,782 0,475 -254,748 -253,274 -637,274 -381,0 -647,-274 -265,-273 -265,-717 z"
                   transform="scale(0.015625)" />
              </defs>
              <use
                 xlink:href="#ArialMT-36"
                 id="use16" />
              <use
                 xlink:href="#ArialMT-30"
                 transform="translate(55.615234)"
                 id="use17" />
              <use
                 xlink:href="#ArialMT-30"
                 transform="translate(111.23047)"
                 id="use18" />
              <use
                 xlink:href="#ArialMT-30"
                 transform="translate(166.8457)"
                 id="use19" />
            </g>
          </g>
        </g>
        <g
           id="xtick_5">
          <g
             id="line2d_9">
            <path
               d="M 342.60427,252.28346 V 34.015748"
               clip-path="url(#p8b67f7faed)"
               style="fill:none;stroke:#b0b0b0;stroke-width:0.8;stroke-linecap:square"
               id="path19" />
          </g>
          <g
             id="line2d_10">
            <g
               id="g20">
              <use
                 xlink:href="#mc8f2f3013e"
                 x="342.60428"
                 y="252.28346"
                 style="stroke:#000000;stroke-width:0.8"
                 id="use20" />
            </g>
          </g>
          <g
             id="text_5">
            <!-- 8000 -->
            <g
               transform="matrix(0.1,0,0,-0.1,331.48239,266.44128)"
               id="g24">
              <defs
                 id="defs20">
                <path
                   id="ArialMT-38"
                   d="m 1131,2484 q -350,129 -519,366 -168,238 -168,569 0,500 359,840 360,341 956,341 600,0 966,-349 366,-348 366,-848 0,-319 -168,-555 -167,-235 -507,-364 422,-137 642,-444 220,-306 220,-731 0,-587 -416,-987 Q 2447,-78 1769,-78 1091,-78 675,323 259,725 259,1325 q 0,447 227,748 227,302 645,411 z m -112,954 q 0,-325 209,-532 210,-206 544,-206 325,0 533,204 208,205 208,502 0,310 -215,521 -214,211 -532,211 -322,0 -535,-207 -212,-206 -212,-493 z M 838,1322 q 0,-241 114,-466 114,-225 339,-349 225,-123 484,-123 403,0 665,259 263,260 263,660 0,406 -270,672 -270,266 -677,266 -397,0 -658,-263 -260,-262 -260,-656 z"
                   transform="scale(0.015625)" />
              </defs>
              <use
                 xlink:href="#ArialMT-38"
                 id="use21" />
              <use
                 xlink:href="#ArialMT-30"
                 transform="translate(55.615234)"
                 id="use22" />
              <use
                 xlink:href="#ArialMT-30"
                 transform="translate(111.23047)"
                 id="use23" />
              <use
                 xlink:href="#ArialMT-30"
                 transform="translate(166.8457)"
                 id="use24" />
            </g>
          </g>
        </g>
        <g
           id="xtick_6">
          <g
             id="line2d_11">
            <path
               d="M 407.8169,252.28346 V 34.015748"
               clip-path="url(#p8b67f7faed)"
               style="fill:none;stroke:#b0b0b0;stroke-width:0.8;stroke-linecap:square"
               id="path24" />
          </g>
          <g
             id="line2d_12">
            <g
               id="g25">
              <use
                 xlink:href="#mc8f2f3013e"
                 x="407.81689"
                 y="252.28346"
                 style="stroke:#000000;stroke-width:0.8"
                 id="use25" />
            </g>
          </g>
          <g
             id="text_6">
            <!-- 10000 -->
            <g
               transform="matrix(0.1,0,0,-0.1,393.91455,266.44128)"
               id="g30">
              <defs
                 id="defs25">
                <path
                   id="ArialMT-31"
                   d="M 2384,0 H 1822 V 3584 Q 1619,3391 1289,3197 959,3003 697,2906 v 544 q 472,222 825,537 353,316 500,613 h 362 z"
                   transform="scale(0.015625)" />
              </defs>
              <use
                 xlink:href="#ArialMT-31"
                 id="use26" />
              <use
                 xlink:href="#ArialMT-30"
                 transform="translate(55.615234)"
                 id="use27" />
              <use
                 xlink:href="#ArialMT-30"
                 transform="translate(111.23047)"
                 id="use28" />
              <use
                 xlink:href="#ArialMT-30"
                 transform="translate(166.8457)"
                 id="use29" />
              <use
                 xlink:href="#ArialMT-30"
                 transform="translate(222.46094)"
                 id="use30" />
            </g>
          </g>
        </g>
        <g
           id="text_7">
          <!-- Frequency (Hz) -->
          <g
             transform="matrix(0.1,0,0,-0.1,227.04528,279.70846)"
             id="g44">
            <defs
               id="defs30">
              <path
                 id="ArialMT-46"
                 d="M 525,0 V 4581 H 3616 V 4041 H 1131 V 2622 H 3281 V 2081 H 1131 V 0 Z"
                 transform="scale(0.015625)" />
              <path
                 id="ArialMT-72"
                 d="m 416,0 v 3319 h 506 v -503 q 194,353 358,465 164,113 361,113 284,0 578,-181 l -194,-522 q -206,122 -412,122 -185,0 -332,-111 -147,-111 -209,-308 -94,-300 -94,-656 V 0 Z"
                 transform="scale(0.015625)" />
              <path
                 id="ArialMT-65"
                 d="m 2694,1069 581,-72 Q 3138,488 2766,206 2394,-75 1816,-75 1088,-75 661,373 234,822 234,1631 q 0,838 431,1300 432,463 1119,463 666,0 1088,-453 422,-453 422,-1275 0,-50 -3,-150 H 816 q 31,-547 309,-838 278,-290 694,-290 309,0 528,162 219,163 347,519 z M 847,1978 h 1853 q -37,419 -212,628 -269,325 -697,325 -388,0 -652,-259 -264,-259 -292,-694 z"
                 transform="scale(0.015625)" />
              <path
                 id="ArialMT-71"
                 d="M 2538,-1272 V 353 Q 2406,169 2170,47 1934,-75 1669,-75 1078,-75 651,397 225,869 225,1691 q 0,500 173,896 174,397 503,602 330,205 724,205 616,0 969,-519 v 444 h 506 V -1272 Z M 803,1669 q 0,-641 269,-961 269,-320 644,-320 359,0 618,304 260,305 260,927 0,662 -274,996 -273,335 -642,335 -365,0 -620,-311 -255,-311 -255,-970 z"
                 transform="scale(0.015625)" />
              <path
                 id="ArialMT-75"
                 d="M 2597,0 V 488 Q 2209,-75 1544,-75 1250,-75 995,37 741,150 617,320 494,491 444,738 409,903 409,1263 V 3319 H 972 V 1478 q 0,-440 34,-594 53,-221 225,-348 172,-127 425,-127 253,0 475,130 222,130 314,353 93,224 93,649 v 1778 h 562 V 0 Z"
                 transform="scale(0.015625)" />
              <path
                 id="ArialMT-6e"
                 d="m 422,0 v 3319 h 506 v -472 q 366,547 1056,547 300,0 552,-108 252,-108 377,-283 125,-175 175,-415 31,-157 31,-547 V 0 h -563 v 2019 q 0,344 -66,514 -65,170 -232,271 -167,102 -392,102 -360,0 -621,-228 Q 984,2450 984,1813 V 0 Z"
                 transform="scale(0.015625)" />
              <path
                 id="ArialMT-63"
                 d="m 2588,1216 553,-72 Q 3050,572 2676,248 2303,-75 1759,-75 1078,-75 664,370 250,816 250,1647 q 0,537 178,940 178,404 542,605 364,202 793,202 540,0 884,-274 344,-273 441,-776 l -547,-85 q -78,335 -277,503 -198,169 -480,169 -425,0 -691,-305 -265,-304 -265,-963 0,-669 256,-972 257,-303 669,-303 331,0 553,203 222,203 282,625 z"
                 transform="scale(0.015625)" />
              <path
                 id="ArialMT-79"
                 d="m 397,-1278 -63,528 q 185,-50 322,-50 188,0 300,63 113,62 185,174 53,85 172,419 15,47 50,138 L 103,3319 h 606 l 691,-1922 q 134,-366 241,-769 97,388 231,756 l 709,1935 h 563 L 1881,-56 q -203,-547 -315,-753 -150,-279 -344,-408 -194,-130 -463,-130 -162,0 -362,69 z"
                 transform="scale(0.015625)" />
              <path
                 id="ArialMT-20"
                 transform="scale(0.015625)"
                 d="" />
              <path
                 id="ArialMT-28"
                 d="M 1497,-1347 Q 1031,-759 709,28 388,816 388,1659 q 0,744 240,1425 281,791 869,1575 h 403 Q 1522,4009 1400,3731 1209,3300 1100,2831 966,2247 966,1656 966,153 1900,-1347 Z"
                 transform="scale(0.015625)" />
              <path
                 id="ArialMT-48"
                 d="m 513,0 v 4581 h 606 V 2700 h 2381 v 1881 h 606 V 0 H 3500 V 2159 H 1119 V 0 Z"
                 transform="scale(0.015625)" />
              <path
                 id="ArialMT-7a"
                 d="m 125,0 v 456 l 2113,2425 q -360,-18 -635,-18 H 250 v 456 H 2963 V 2947 L 1166,841 819,456 q 378,28 709,28 H 3063 V 0 Z"
                 transform="scale(0.015625)" />
              <path
                 id="ArialMT-29"
                 d="M 791,-1347 H 388 q 934,1500 934,3003 0,588 -134,1166 -107,469 -297,900 -122,281 -503,937 h 403 q 587,-784 868,-1575 241,-681 241,-1425 0,-843 -324,-1631 -323,-787 -785,-1375 z"
                 transform="scale(0.015625)" />
            </defs>
            <use
               xlink:href="#ArialMT-46"
               id="use31" />
            <use
               xlink:href="#ArialMT-72"
               transform="translate(61.083984)"
               id="use32" />
            <use
               xlink:href="#ArialMT-65"
               transform="translate(94.384766)"
               id="use33" />
            <use
               xlink:href="#ArialMT-71"
               transform="translate(150)"
               id="use34" />
            <use
               xlink:href="#ArialMT-75"
               transform="translate(205.61523)"
               id="use35" />
            <use
               xlink:href="#ArialMT-65"
               transform="translate(261.23047)"
               id="use36" />
            <use
               xlink:href="#ArialMT-6e"
               transform="translate(316.8457)"
               id="use37" />
            <use
               xlink:href="#ArialMT-63"
               transform="translate(372.46094)"
               id="use38" />
            <use
               xlink:href="#ArialMT-79"
               transform="translate(422.46094)"
               id="use39" />
            <use
               xlink:href="#ArialMT-20"
               transform="translate(472.46094)"
               id="use40" />
            <use
               xlink:href="#ArialMT-28"
               transform="translate(500.24414)"
               id="use41" />
            <use
               xlink:href="#ArialMT-48"
               transform="translate(533.54492)"
               id="use42" />
            <use
               xlink:href="#ArialMT-7a"
               transform="translate(605.76172)"
               id="use43" />
            <use
               xlink:href="#ArialMT-29"
               transform="translate(655.76172)"
               id="use44" />
          </g>
        </g>
      </g>
      <g
         id="matplotlib.axis_2">
        <g
           id="ytick_1">
          <g
             id="line2d_13">
            <path
               d="M 63.779528,242.95114 H 459.2126"
               clip-path="url(#p8b67f7faed)"
               style="fill:none;stroke:#b0b0b0;stroke-width:0.8;stroke-linecap:square"
               id="path44" />
          </g>
          <g
             id="line2d_14">
            <defs
               id="defs44">
              <path
                 id="m13df65a1af"
                 d="M 0,0 H -3.5"
                 style="stroke:#000000;stroke-width:0.8" />
            </defs>
            <g
               id="g45">
              <use
                 xlink:href="#m13df65a1af"
                 x="63.77953"
                 y="242.95114"
                 style="stroke:#000000;stroke-width:0.8"
                 id="use45" />
            </g>
          </g>
          <g
             id="text_8">
            <!-- 0.0 -->
            <g
               transform="matrix(0.1,0,0,-0.1,42.879528,246.53004)"
               id="g48">
              <defs
                 id="defs45">
                <path
                   id="ArialMT-2e"
                   d="m 581,0 v 641 h 641 V 0 Z"
                   transform="scale(0.015625)" />
              </defs>
              <use
                 xlink:href="#ArialMT-30"
                 id="use46" />
              <use
                 xlink:href="#ArialMT-2e"
                 transform="translate(55.615234)"
                 id="use47" />
              <use
                 xlink:href="#ArialMT-30"
                 transform="translate(83.398438)"
                 id="use48" />
            </g>
          </g>
        </g>
        <g
           id="ytick_2">
          <g
             id="line2d_15">
            <path
               d="M 63.779528,213.48421 H 459.2126"
               clip-path="url(#p8b67f7faed)"
               style="fill:none;stroke:#b0b0b0;stroke-width:0.8;stroke-linecap:square"
               id="path48" />
          </g>
          <g
             id="line2d_16">
            <g
               id="g49">
              <use
                 xlink:href="#m13df65a1af"
                 x="63.77953"
                 y="213.48421"
                 style="stroke:#000000;stroke-width:0.8"
                 id="use49" />
            </g>
          </g>
          <g
             id="text_9">
            <!-- 0.2 -->
            <g
               transform="matrix(0.1,0,0,-0.1,42.879528,217.06311)"
               id="g52">
              <use
                 xlink:href="#ArialMT-30"
                 id="use50" />
              <use
                 xlink:href="#ArialMT-2e"
                 transform="translate(55.615234)"
                 id="use51" />
              <use
                 xlink:href="#ArialMT-32"
                 transform="translate(83.398438)"
                 id="use52" />
            </g>
          </g>
        </g>
        <g
           id="ytick_3">
          <g
             id="line2d_17">
            <path
               d="M 63.779528,184.01728 H 459.2126"
               clip-path="url(#p8b67f7faed)"
               style="fill:none;stroke:#b0b0b0;stroke-width:0.8;stroke-linecap:square"
               id="path52" />
          </g>
          <g
             id="line2d_18">
            <g
               id="g53">
              <use
                 xlink:href="#m13df65a1af"
                 x="63.77953"
                 y="184.01727"
                 style="stroke:#000000;stroke-width:0.8"
                 id="use53" />
            </g>
          </g>
          <g
             id="text_10">
            <!-- 0.4 -->
            <g
               transform="matrix(0.1,0,0,-0.1,42.879528,187.59618)"
               id="g56">
              <use
                 xlink:href="#ArialMT-30"
                 id="use54" />
              <use
                 xlink:href="#ArialMT-2e"
                 transform="translate(55.615234)"
                 id="use55" />
              <use
                 xlink:href="#ArialMT-34"
                 transform="translate(83.398438)"
                 id="use56" />
            </g>
          </g>
        </g>
        <g
           id="ytick_4">
          <g
             id="line2d_19">
            <path
               d="M 63.779528,154.55035 H 459.2126"
               clip-path="url(#p8b67f7faed)"
               style="fill:none;stroke:#b0b0b0;stroke-width:0.8;stroke-linecap:square"
               id="path56" />
          </g>
          <g
             id="line2d_20">
            <g
               id="g57">
              <use
                 xlink:href="#m13df65a1af"
                 x="63.77953"
                 y="154.55035"
                 style="stroke:#000000;stroke-width:0.8"
                 id="use57" />
            </g>
          </g>
          <g
             id="text_11">
            <!-- 0.6 -->
            <g
               transform="matrix(0.1,0,0,-0.1,42.879528,158.12925)"
               id="g60">
              <use
                 xlink:href="#ArialMT-30"
                 id="use58" />
              <use
                 xlink:href="#ArialMT-2e"
                 transform="translate(55.615234)"
                 id="use59" />
              <use
                 xlink:href="#ArialMT-36"
                 transform="translate(83.398438)"
                 id="use60" />
            </g>
          </g>
        </g>
        <g
           id="ytick_5">
          <g
             id="line2d_21">
            <path
               d="M 63.779528,125.08342 H 459.2126"
               clip-path="url(#p8b67f7faed)"
               style="fill:none;stroke:#b0b0b0;stroke-width:0.8;stroke-linecap:square"
               id="path60" />
          </g>
          <g
             id="line2d_22">
            <g
               id="g61">
              <use
                 xlink:href="#m13df65a1af"
                 x="63.77953"
                 y="125.08342"
                 style="stroke:#000000;stroke-width:0.8"
                 id="use61" />
            </g>
          </g>
          <g
             id="text_12">
            <!-- 0.8 -->
            <g
               transform="matrix(0.1,0,0,-0.1,42.879528,128.66233)"
               id="g64">
              <use
                 xlink:href="#ArialMT-30"
                 id="use62" />
              <use
                 xlink:href="#ArialMT-2e"
                 transform="translate(55.615234)"
                 id="use63" />
              <use
                 xlink:href="#ArialMT-38"
                 transform="translate(83.398438)"
                 id="use64" />
            </g>
          </g>
        </g>
        <g
           id="ytick_6">
          <g
             id="line2d_23">
            <path
               d="M 63.779528,95.616492 H 459.2126"
               clip-path="url(#p8b67f7faed)"
               style="fill:none;stroke:#b0b0b0;stroke-width:0.8;stroke-linecap:square"
               id="path64" />
          </g>
          <g
             id="line2d_24">
            <g
               id="g65">
              <use
                 xlink:href="#m13df65a1af"
                 x="63.77953"
                 y="95.616493"
                 style="stroke:#000000;stroke-width:0.8"
                 id="use65" />
            </g>
          </g>
          <g
             id="text_13">
            <!-- 1.0 -->
            <g
               transform="matrix(0.1,0,0,-0.1,42.879528,99.195398)"
               id="g68">
              <use
                 xlink:href="#ArialMT-31"
                 id="use66" />
              <use
                 xlink:href="#ArialMT-2e"
                 transform="translate(55.615234)"
                 id="use67" />
              <use
                 xlink:href="#ArialMT-30"
                 transform="translate(83.398438)"
                 id="use68" />
            </g>
          </g>
        </g>
        <g
           id="ytick_7">
          <g
             id="line2d_25">
            <path
               d="M 63.779528,66.149563 H 459.2126"
               clip-path="url(#p8b67f7faed)"
               style="fill:none;stroke:#b0b0b0;stroke-width:0.8;stroke-linecap:square"
               id="path68" />
          </g>
          <g
             id="line2d_26">
            <g
               id="g69">
              <use
                 xlink:href="#m13df65a1af"
                 x="63.77953"
                 y="66.149567"
                 style="stroke:#000000;stroke-width:0.8"
                 id="use69" />
            </g>
          </g>
          <g
             id="text_14">
            <!-- 1.2 -->
            <g
               transform="matrix(0.1,0,0,-0.1,42.879528,69.728469)"
               id="g72">
              <use
                 xlink:href="#ArialMT-31"
                 id="use70" />
              <use
                 xlink:href="#ArialMT-2e"
                 transform="translate(55.615234)"
                 id="use71" />
              <use
                 xlink:href="#ArialMT-32"
                 transform="translate(83.398438)"
                 id="use72" />
            </g>
          </g>
        </g>
        <g
           id="ytick_8">
          <g
             id="line2d_27">
            <path
               d="M 63.779528,36.682634 H 459.2126"
               clip-path="url(#p8b67f7faed)"
               style="fill:none;stroke:#b0b0b0;stroke-width:0.8;stroke-linecap:square"
               id="path72" />
          </g>
          <g
             id="line2d_28">
            <g
               id="g73">
              <use
                 xlink:href="#m13df65a1af"
                 x="63.77953"
                 y="36.682632"
                 style="stroke:#000000;stroke-width:0.8"
                 id="use73" />
            </g>
          </g>
          <g
             id="text_15">
            <!-- 1.4 -->
            <g
               transform="matrix(0.1,0,0,-0.1,42.879528,40.26154)"
               id="g76">
              <use
                 xlink:href="#ArialMT-31"
                 id="use74" />
              <use
                 xlink:href="#ArialMT-2e"
                 transform="translate(55.615234)"
                 id="use75" />
              <use
                 xlink:href="#ArialMT-34"
                 transform="translate(83.398438)"
                 id="use76" />
            </g>
          </g>
        </g>
        <g
           id="text_16">
          <!-- Magnitude -->
          <g
             transform="matrix(0,-0.1,-0.1,0,36.77484,166.49726)"
             id="g85">
            <defs
               id="defs76">
              <path
                 id="ArialMT-4d"
                 d="m 475,0 v 4581 h 913 L 2472,1338 q 150,-454 219,-679 78,250 243,735 l 1097,3187 h 816 V 0 H 4263 V 3834 L 2931,0 H 2384 L 1059,3900 V 0 Z"
                 transform="scale(0.015625)" />
              <path
                 id="ArialMT-61"
                 d="M 2588,409 Q 2275,144 1986,34 1697,-75 1366,-75 819,-75 525,192 231,459 231,875 q 0,244 111,445 111,202 291,324 180,122 405,184 165,44 500,85 681,81 1003,193 3,116 3,147 0,344 -160,485 -215,190 -640,190 -397,0 -586,-139 -189,-139 -280,-492 l -550,75 q 75,353 247,570 172,217 497,334 325,118 753,118 425,0 690,-100 266,-100 391,-252 125,-151 175,-383 28,-143 28,-518 v -750 q 0,-785 36,-993 36,-207 143,-398 h -588 q -87,175 -112,409 z m -47,1257 q -307,-125 -919,-213 -347,-50 -491,-113 -143,-62 -222,-182 -78,-120 -78,-267 0,-225 170,-375 171,-150 499,-150 325,0 578,142 253,142 372,389 91,191 91,562 z"
                 transform="scale(0.015625)" />
              <path
                 id="ArialMT-67"
                 d="m 319,-275 547,-81 q 34,-253 190,-369 210,-156 572,-156 391,0 603,156 213,156 288,437 44,172 40,722 Q 2191,0 1641,0 956,0 581,494 206,988 206,1678 q 0,475 172,876 172,402 498,621 327,219 768,219 587,0 969,-475 v 400 h 518 V 450 q 0,-775 -158,-1098 -157,-324 -500,-511 -342,-188 -842,-188 -593,0 -959,267 -366,267 -353,805 z m 465,1994 q 0,-653 259,-953 260,-300 651,-300 387,0 649,298 263,299 263,936 0,609 -270,918 -270,310 -652,310 -375,0 -638,-305 -262,-304 -262,-904 z"
                 transform="scale(0.015625)" />
              <path
                 id="ArialMT-69"
                 d="m 425,3934 v 647 H 988 V 3934 Z M 425,0 V 3319 H 988 V 0 Z"
                 transform="scale(0.015625)" />
              <path
                 id="ArialMT-74"
                 d="M 1650,503 1731,6 Q 1494,-44 1306,-44 1000,-44 831,53 663,150 594,308 525,466 525,972 V 2881 H 113 v 438 h 412 v 822 l 559,337 V 3319 h 566 V 2881 H 1084 V 941 q 0,-241 30,-310 30,-68 97,-109 67,-41 192,-41 94,0 247,22 z"
                 transform="scale(0.015625)" />
              <path
                 id="ArialMT-64"
                 d="M 2575,0 V 419 Q 2259,-75 1647,-75 1250,-75 917,144 584,363 401,755 q -182,392 -182,901 0,497 165,902 166,405 497,620 332,216 741,216 300,0 534,-127 235,-126 382,-329 v 1643 h 559 V 0 Z M 797,1656 q 0,-637 268,-953 269,-315 635,-315 369,0 626,301 258,302 258,920 0,682 -263,1000 -262,319 -646,319 -375,0 -627,-306 -251,-306 -251,-966 z"
                 transform="scale(0.015625)" />
            </defs>
            <use
               xlink:href="#ArialMT-4d"
               id="use77" />
            <use
               xlink:href="#ArialMT-61"
               transform="translate(83.300781)"
               id="use78" />
            <use
               xlink:href="#ArialMT-67"
               transform="translate(138.91602)"
               id="use79" />
            <use
               xlink:href="#ArialMT-6e"
               transform="translate(194.53125)"
               id="use80" />
            <use
               xlink:href="#ArialMT-69"
               transform="translate(250.14648)"
               id="use81" />
            <use
               xlink:href="#ArialMT-74"
               transform="translate(272.36328)"
               id="use82" />
            <use
               xlink:href="#ArialMT-75"
               transform="translate(300.14648)"
               id="use83" />
            <use
               xlink:href="#ArialMT-64"
               transform="translate(355.76172)"
               id="use84" />
            <use
               xlink:href="#ArialMT-65"
               transform="translate(411.37695)"
               id="use85" />
          </g>
        </g>
      </g>
      <g
         id="line2d_29">
        <path
           d="m 81.753758,222.38246 0.351059,-0.39709 0.351059,-1.16088 0.35106,-1.90281 0.351059,-2.98659 0.351059,-5.50291 0.351059,-8.86038 0.351059,-13.12565 0.35106,-25.17118 0.702118,-103.386033 0.351059,-15.951929 1.053178,105.176542 0.351059,15.36161 0.351059,2.59531 0.351059,-3.43213 1.404237,-41.65004 0.351059,1.81018 0.702119,23.66683 0.351059,7.83506 1.755296,18.72239 0.702118,4.12672 1.053178,20.49483 0.351059,2.08377 0.702118,7.94824 0.351059,2.7259 0.35106,0.78633 0.351059,2.04064 0.702118,2.56995 0.351059,0.37042 0.35106,1.5823 0.351059,0.24165 0.351059,1.17226 0.351059,0.50478 0.351059,-0.79997 0.702119,-0.18045 0.351063,1.34618 0.35105,0.82932 0.35106,-0.92685 0.35106,0.6737 0.35106,0.40657 0.35106,0.006 0.35106,0.34478 0.35106,-1.32855 0.70212,1.33892 0.35106,-0.18532 0.35106,-0.42375 0.35106,-0.18206 0.35105,0.6356 0.35107,-0.3762 0.35105,-1.03482 0.35106,0.18703 0.35106,1.33288 0.35106,-0.81394 0.35106,-0.38212 0.35106,-0.62223 0.35106,1.18428 0.35106,0.39453 0.35106,-0.5917 0.70212,0.53292 0.70211,0.3492 0.35106,0.32596 0.35106,0.16325 0.35106,0.4013 0.70212,-0.052 0.35106,-0.29444 0.35106,0.3591 0.35106,0.56915 0.35106,0.0684 0.35106,0.23639 0.35106,0.51386 0.35105,0.13657 0.35106,0.27294 0.35106,0.48189 0.35106,0.99612 1.05318,0.93867 0.70212,1.0076 0.35106,-0.16799 0.35106,0.4274 0.35106,0.70058 0.35105,-0.0421 0.70212,0.77285 0.35106,0.31369 0.35106,0.64819 0.35106,0.10586 0.70212,0.61323 0.70212,0.33122 0.70212,-0.0954 0.35105,0.10775 0.35106,0.48433 0.35106,0.19276 0.35106,-0.20089 0.35106,0.0748 0.35106,-0.47167 0.35106,-0.10603 0.35106,0.58221 0.35106,-0.0561 0.35106,-0.34558 1.05317,0.11703 0.35106,-0.23007 0.35106,-0.053 0.35106,0.0849 0.35106,-0.2625 0.35106,0.061 0.70212,0.4114 1.05318,0.0456 0.70211,0.69699 1.05318,0.39198 0.35106,0.52944 0.70212,-0.20414 0.35106,0.35491 0.35106,0.0887 0.35106,0.38768 0.35106,0.5807 0.35106,0.12288 0.35106,0.2664 0.70211,0.11822 0.70212,0.30138 0.35106,-0.0365 0.35106,0.32692 1.40424,0.41282 0.35106,-0.006 0.70211,0.1658 0.35106,-0.0197 0.35106,0.24653 0.35106,-0.0912 0.70212,-0.0249 0.35106,7.7e-4 0.35106,0.23634 0.70212,0.11285 1.05317,0.0466 1.40424,-0.13627 1.05318,0.0337 0.35106,0.0993 0.35106,-0.0454 0.35106,0.0998 0.35106,-0.13872 0.70211,-0.0482 1.05318,-0.19598 0.70212,0.30806 0.35106,-0.0532 1.05318,0.20391 0.35106,-0.0624 2.45741,0.44763 0.70212,0.0848 0.35106,0.11011 0.35106,-0.0403 0.70212,0.0603 1.40423,0.23069 0.35106,-0.0368 0.70212,0.26539 0.35106,-0.0366 0.35106,0.078 0.35106,-0.0875 1.75529,0.27251 0.35106,-0.10944 0.70212,0.13294 1.05318,0.0209 0.70212,0.14253 2.10635,-0.01 0.70212,0.0933 0.35106,0.18452 2.10635,-0.0567 1.05318,0.0103 1.05318,0.0463 0.70212,0.10705 0.70212,-0.007 0.70212,0.11347 1.40423,0.0438 1.05318,0.087 1.40424,0.0577 0.35106,-0.0282 0.35106,0.0853 0.70211,-0.0619 1.40424,0.13185 1.40424,0.0135 1.05317,0.10989 1.05318,-0.0666 2.80848,0.13013 1.05317,-0.006 1.05318,0.0856 2.10636,0.0388 1.05317,-0.0218 1.05318,0.0585 4.56377,0.35964 1.40424,-0.0844 1.75529,0.15732 0.35106,-0.0711 2.10636,0.31621 1.05317,0.34357 1.40424,0.26422 7.37224,0.41152 1.05318,-0.0553 30.19109,0.26052 83.20103,0.16169 25.27626,-0.0136 7.37224,-0.003 81.09468,-0.0247 v 0"
           clip-path="url(#p8b67f7faed)"
           style="fill:none;stroke:#0000ff;stroke-width:1.5;stroke-linecap:square"
           id="path85" />
      </g>
      <g
         id="patch_3">
        <path
           d="M 63.779528,252.28346 V 34.015748"
           style="fill:none;stroke:#000000;stroke-width:0.8;stroke-linecap:square;stroke-linejoin:miter"
           id="path86" />
      </g>
      <g
         id="patch_4">
        <path
           d="M 459.2126,252.28346 V 34.015748"
           style="fill:none;stroke:#000000;stroke-width:0.8;stroke-linecap:square;stroke-linejoin:miter"
           id="path87" />
      </g>
      <g
         id="patch_5">
        <path
           d="M 63.779528,252.28346 H 459.2126"
           style="fill:none;stroke:#000000;stroke-width:0.8;stroke-linecap:square;stroke-linejoin:miter"
           id="path88" />
      </g>
      <g
         id="patch_6">
        <path
           d="M 63.779528,34.015748 H 459.2126"
           style="fill:none;stroke:#000000;stroke-width:0.8;stroke-linecap:square;stroke-linejoin:miter"
           id="path89" />
      </g>
      <g
         id="text_17">
        <!-- Average Frequency Spectrum -->
        <g
           transform="matrix(0.12,0,0,-0.12,181.90137,28.015748)"
           id="g114">
          <defs
             id="defs89">
            <path
               id="ArialMT-41"
               d="m -9,0 1759,4581 h 653 L 4278,0 H 3588 L 3053,1388 H 1138 L 634,0 Z m 1322,1881 h 1553 l -478,1269 q -219,578 -325,950 -88,-441 -247,-875 z"
               transform="scale(0.015625)" />
            <path
               id="ArialMT-76"
               d="M 1344,0 81,3319 h 594 l 713,-1988 q 115,-322 212,-668 75,262 209,631 l 738,2025 h 578 L 1869,0 Z"
               transform="scale(0.015625)" />
            <path
               id="ArialMT-53"
               d="m 288,1472 571,50 q 41,-344 189,-564 149,-220 461,-356 313,-136 704,-136 346,0 612,103 266,103 395,282 130,180 130,393 0,215 -125,376 -125,161 -412,271 -185,72 -816,223 -631,152 -884,286 -329,172 -490,426 -160,255 -160,571 0,347 196,648 197,302 575,458 379,156 841,156 509,0 898,-164 390,-164 599,-483 209,-318 225,-721 l -581,-44 q -47,434 -318,656 -270,222 -798,222 -550,0 -802,-202 -251,-201 -251,-485 0,-247 178,-407 175,-159 914,-326 739,-167 1014,-292 400,-185 590,-468 191,-282 191,-651 0,-366 -209,-690 Q 3516,281 3123,101 2731,-78 2241,-78 1619,-78 1198,103 778,284 539,648 300,1013 288,1472 Z"
               transform="scale(0.015625)" />
            <path
               id="ArialMT-70"
               d="m 422,-1272 v 4591 h 512 v -431 q 182,253 410,379 228,127 553,127 425,0 750,-219 325,-219 490,-618 166,-398 166,-873 0,-509 -183,-917 Q 2938,359 2589,142 2241,-75 1856,-75 1575,-75 1351,44 1128,163 984,344 v -1616 z m 509,2913 q 0,-641 259,-947 260,-306 629,-306 375,0 642,317 267,317 267,983 0,634 -261,949 -261,316 -623,316 -360,0 -637,-336 -276,-336 -276,-976 z"
               transform="scale(0.015625)" />
            <path
               id="ArialMT-6d"
               d="m 422,0 v 3319 h 503 v -466 q 156,244 415,392 260,149 591,149 369,0 605,-153 236,-153 333,-428 394,581 1025,581 494,0 759,-274 266,-273 266,-842 V 0 h -560 v 2091 q 0,337 -55,485 -54,149 -198,239 -143,91 -337,91 -350,0 -582,-233 -231,-232 -231,-745 V 0 h -562 v 2156 q 0,375 -138,562 -137,188 -450,188 -237,0 -439,-125 -201,-125 -292,-366 -91,-240 -91,-693 V 0 Z"
               transform="scale(0.015625)" />
          </defs>
          <use
             xlink:href="#ArialMT-41"
             id="use89" />
          <use
             xlink:href="#ArialMT-76"
             transform="translate(64.949219)"
             id="use90" />
          <use
             xlink:href="#ArialMT-65"
             transform="translate(114.94922)"
             id="use91" />
          <use
             xlink:href="#ArialMT-72"
             transform="translate(170.56445)"
             id="use92" />
          <use
             xlink:href="#ArialMT-61"
             transform="translate(203.86523)"
             id="use93" />
          <use
             xlink:href="#ArialMT-67"
             transform="translate(259.48047)"
             id="use94" />
          <use
             xlink:href="#ArialMT-65"
             transform="translate(315.0957)"
             id="use95" />
          <use
             xlink:href="#ArialMT-20"
             transform="translate(370.71094)"
             id="use96" />
          <use
             xlink:href="#ArialMT-46"
             transform="translate(398.49414)"
             id="use97" />
          <use
             xlink:href="#ArialMT-72"
             transform="translate(459.57812)"
             id="use98" />
          <use
             xlink:href="#ArialMT-65"
             transform="translate(492.87891)"
             id="use99" />
          <use
             xlink:href="#ArialMT-71"
             transform="translate(548.49414)"
             id="use100" />
          <use
             xlink:href="#ArialMT-75"
             transform="translate(604.10937)"
             id="use101" />
          <use
             xlink:href="#ArialMT-65"
             transform="translate(659.72461)"
             id="use102" />
          <use
             xlink:href="#ArialMT-6e"
             transform="translate(715.33984)"
             id="use103" />
          <use
             xlink:href="#ArialMT-63"
             transform="translate(770.95508)"
             id="use104" />
          <use
             xlink:href="#ArialMT-79"
             transform="translate(820.95508)"
             id="use105" />
          <use
             xlink:href="#ArialMT-20"
             transform="translate(870.95508)"
             id="use106" />
          <use
             xlink:href="#ArialMT-53"
             transform="translate(898.73828)"
             id="use107" />
          <use
             xlink:href="#ArialMT-70"
             transform="translate(965.4375)"
             id="use108" />
          <use
             xlink:href="#ArialMT-65"
             transform="translate(1021.0527)"
             id="use109" />
          <use
             xlink:href="#ArialMT-63"
             transform="translate(1076.668)"
             id="use110" />
          <use
             xlink:href="#ArialMT-74"
             transform="translate(1126.668)"
             id="use111" />
          <use
             xlink:href="#ArialMT-72"
             transform="translate(1154.4512)"
             id="use112" />
          <use
             xlink:href="#ArialMT-75"
             transform="translate(1187.752)"
             id="use113" />
          <use
             xlink:href="#ArialMT-6d"
             transform="translate(1243.3672)"
             id="use114" />
        </g>
      </g>
      <g
         id="legend_1">
        <g
           id="patch_7">
          <path
             d="m 337.5751,56.400123 h 114.6375 q 2,0 2,-2 V 41.015748 q 0,-2 -2,-2 H 337.5751 q -2,0 -2,2 v 13.384375 q 0,2 2,2 z"
             style="opacity:0.8;fill:#ffffff;stroke:#cccccc;stroke-linejoin:miter"
             id="path114" />
        </g>
        <g
           id="line2d_30">
          <path
             d="m 339.5751,46.795436 h 10 10"
             style="fill:none;stroke:#0000ff;stroke-width:1.5;stroke-linecap:square"
             id="path115" />
        </g>
        <g
           id="text_18">
          <!-- Average Spectrum -->
          <g
             transform="matrix(0.1,0,0,-0.1,367.5751,50.295436)"
             id="g130">
            <use
               xlink:href="#ArialMT-41"
               id="use115" />
            <use
               xlink:href="#ArialMT-76"
               transform="translate(64.949219)"
               id="use116" />
            <use
               xlink:href="#ArialMT-65"
               transform="translate(114.94922)"
               id="use117" />
            <use
               xlink:href="#ArialMT-72"
               transform="translate(170.56445)"
               id="use118" />
            <use
               xlink:href="#ArialMT-61"
               transform="translate(203.86523)"
               id="use119" />
            <use
               xlink:href="#ArialMT-67"
               transform="translate(259.48047)"
               id="use120" />
            <use
               xlink:href="#ArialMT-65"
               transform="translate(315.0957)"
               id="use121" />
            <use
               xlink:href="#ArialMT-20"
               transform="translate(370.71094)"
               id="use122" />
            <use
               xlink:href="#ArialMT-53"
               transform="translate(398.49414)"
               id="use123" />
            <use
               xlink:href="#ArialMT-70"
               transform="translate(465.19336)"
               id="use124" />
            <use
               xlink:href="#ArialMT-65"
               transform="translate(520.80859)"
               id="use125" />
            <use
               xlink:href="#ArialMT-63"
               transform="translate(576.42383)"
               id="use126" />
            <use
               xlink:href="#ArialMT-74"
               transform="translate(626.42383)"
               id="use127" />
            <use
               xlink:href="#ArialMT-72"
               transform="translate(654.20703)"
               id="use128" />
            <use
               xlink:href="#ArialMT-75"
               transform="translate(687.50781)"
               id="use129" />
            <use
               xlink:href="#ArialMT-6d"
               transform="translate(743.12305)"
               id="use130" />
          </g>
        </g>
      </g>
    </g>
  </g>
  <defs
     id="defs130">
    <clipPath
       id="p8b67f7faed">
      <rect
         x="63.77953"
         y="34.015747"
         width="395.43307"
         height="218.26772"
         id="rect130" />
    </clipPath>
  </defs>
</svg>
