<?xml version="1.0" encoding="UTF-8" standalone="no"?>
<svg
   width="180mm"
   height="120mm"
   viewBox="0 0 510.23623 340.15749"
   version="1.1"
   id="svg147"
   sodipodi:docname="wordlength.svg"
   inkscape:export-filename="wordlength.pdf"
   inkscape:export-xdpi="96"
   inkscape:export-ydpi="96"
   inkscape:version="1.4 (86a8ad7, 2024-10-11)"
   xmlns:inkscape="http://www.inkscape.org/namespaces/inkscape"
   xmlns:sodipodi="http://sodipodi.sourceforge.net/DTD/sodipodi-0.dtd"
   xmlns:xlink="http://www.w3.org/1999/xlink"
   xmlns="http://www.w3.org/2000/svg"
   xmlns:svg="http://www.w3.org/2000/svg"
   xmlns:rdf="http://www.w3.org/1999/02/22-rdf-syntax-ns#"
   xmlns:cc="http://creativecommons.org/ns#"
   xmlns:dc="http://purl.org/dc/elements/1.1/">
  <sodipodi:namedview
     id="namedview147"
     pagecolor="#ffffff"
     bordercolor="#000000"
     borderopacity="0.25"
     inkscape:showpageshadow="2"
     inkscape:pageopacity="0.0"
     inkscape:pagecheckerboard="0"
     inkscape:deskcolor="#d1d1d1"
     inkscape:document-units="pt"
     inkscape:zoom="1.0219532"
     inkscape:cx="350.79886"
     inkscape:cy="195.21443"
     inkscape:window-width="1920"
     inkscape:window-height="1129"
     inkscape:window-x="4472"
     inkscape:window-y="233"
     inkscape:window-maximized="1"
     inkscape:current-layer="svg147" />
  <metadata
     id="metadata1">
    <rdf:RDF>
      <cc:Work>
        <dc:type
           rdf:resource="http://purl.org/dc/dcmitype/StillImage" />
        <dc:date>2025-02-26T12:22:34.228971</dc:date>
        <dc:format>image/svg+xml</dc:format>
        <dc:creator>
          <cc:Agent>
            <dc:title>Matplotlib v3.10.0, https://matplotlib.org/</dc:title>
          </cc:Agent>
        </dc:creator>
      </cc:Work>
    </rdf:RDF>
  </metadata>
  <defs
     id="defs1">
    <style
       type="text/css"
       id="style1">*{stroke-linejoin: round; stroke-linecap: butt}</style>
  </defs>
  <g
     id="figure_1">
    <g
       id="patch_1">
      <path
         d="M 0,340.15748 H 510.23622 V 0 H 0 Z"
         style="fill:#ffffff"
         id="path1" />
    </g>
    <g
       id="axes_1">
      <g
         id="patch_2">
        <path
           d="M 76.79,298.19748 H 499.43622 V 25.49625 H 76.79 Z"
           style="fill:#ffffff"
           id="path2" />
      </g>
      <g
         id="matplotlib.axis_1">
        <g
           id="xtick_1">
          <g
             id="line2d_1">
            <defs
               id="defs2">
              <path
                 id="m5f595f715d"
                 d="M 0,0 V 3.5"
                 style="stroke:#000000;stroke-width:0.8" />
            </defs>
            <g
               id="g2">
              <use
                 xlink:href="#m5f595f715d"
                 x="112.24705"
                 y="298.19748"
                 style="stroke:#000000;stroke-width:0.8"
                 id="use2" />
            </g>
          </g>
          <g
             id="text_1">
            <!-- 0.4 -->
            <g
               transform="matrix(0.1,0,0,-0.1,105.29705,312.35529)"
               id="g5">
              <defs
                 id="defs3">
                <path
                   id="ArialMT-30"
                   d="m 266,2259 q 0,813 167,1308 167,496 496,764 330,269 830,269 369,0 647,-149 278,-148 459,-428 182,-279 285,-681 103,-401 103,-1083 0,-806 -166,-1301 Q 2922,463 2592,192 2263,-78 1759,-78 1097,-78 719,397 266,969 266,2259 Z m 578,0 q 0,-1128 264,-1502 264,-373 651,-373 388,0 652,375 264,375 264,1500 0,1132 -264,1503 -264,372 -658,372 -387,0 -619,-328 Q 844,3388 844,2259 Z"
                   transform="scale(0.015625)" />
                <path
                   id="ArialMT-2e"
                   d="m 581,0 v 641 h 641 V 0 Z"
                   transform="scale(0.015625)" />
                <path
                   id="ArialMT-34"
                   d="M 2069,0 V 1097 H 81 v 516 l 2091,2968 h 459 V 1613 h 619 V 1097 H 2631 V 0 Z m 0,1613 V 3678 L 634,1613 Z"
                   transform="scale(0.015625)" />
              </defs>
              <use
                 xlink:href="#ArialMT-30"
                 id="use3" />
              <use
                 xlink:href="#ArialMT-2e"
                 transform="translate(55.615234)"
                 id="use4" />
              <use
                 xlink:href="#ArialMT-34"
                 transform="translate(83.398438)"
                 id="use5" />
            </g>
          </g>
        </g>
        <g
           id="xtick_2">
          <g
             id="line2d_2">
            <g
               id="g6">
              <use
                 xlink:href="#m5f595f715d"
                 x="171.35944"
                 y="298.19748"
                 style="stroke:#000000;stroke-width:0.8"
                 id="use6" />
            </g>
          </g>
          <g
             id="text_2">
            <!-- 0.6 -->
            <g
               transform="matrix(0.1,0,0,-0.1,164.40944,312.35529)"
               id="g9">
              <defs
                 id="defs6">
                <path
                   id="ArialMT-36"
                   d="m 3184,3459 -559,-43 q -75,331 -212,481 -229,241 -563,241 -269,0 -472,-150 -265,-194 -419,-566 -153,-372 -159,-1059 203,309 497,459 294,150 616,150 562,0 957,-414 396,-414 396,-1070 0,-432 -186,-802 Q 2894,316 2569,119 2244,-78 1831,-78 1128,-78 684,439 241,956 241,2144 q 0,1328 490,1931 428,525 1153,525 541,0 886,-303 346,-303 414,-838 z M 888,1484 q 0,-290 123,-556 123,-265 345,-405 222,-139 466,-139 356,0 612,287 257,288 257,782 0,475 -254,748 -253,274 -637,274 -381,0 -647,-274 -265,-273 -265,-717 z"
                   transform="scale(0.015625)" />
              </defs>
              <use
                 xlink:href="#ArialMT-30"
                 id="use7" />
              <use
                 xlink:href="#ArialMT-2e"
                 transform="translate(55.615234)"
                 id="use8" />
              <use
                 xlink:href="#ArialMT-36"
                 transform="translate(83.398438)"
                 id="use9" />
            </g>
          </g>
        </g>
        <g
           id="xtick_3">
          <g
             id="line2d_3">
            <g
               id="g10">
              <use
                 xlink:href="#m5f595f715d"
                 x="230.47183"
                 y="298.19748"
                 style="stroke:#000000;stroke-width:0.8"
                 id="use10" />
            </g>
          </g>
          <g
             id="text_3">
            <!-- 0.8 -->
            <g
               transform="matrix(0.1,0,0,-0.1,223.52183,312.35529)"
               id="g13">
              <defs
                 id="defs10">
                <path
                   id="ArialMT-38"
                   d="m 1131,2484 q -350,129 -519,366 -168,238 -168,569 0,500 359,840 360,341 956,341 600,0 966,-349 366,-348 366,-848 0,-319 -168,-555 -167,-235 -507,-364 422,-137 642,-444 220,-306 220,-731 0,-587 -416,-987 Q 2447,-78 1769,-78 1091,-78 675,323 259,725 259,1325 q 0,447 227,748 227,302 645,411 z m -112,954 q 0,-325 209,-532 210,-206 544,-206 325,0 533,204 208,205 208,502 0,310 -215,521 -214,211 -532,211 -322,0 -535,-207 -212,-206 -212,-493 z M 838,1322 q 0,-241 114,-466 114,-225 339,-349 225,-123 484,-123 403,0 665,259 263,260 263,660 0,406 -270,672 -270,266 -677,266 -397,0 -658,-263 -260,-262 -260,-656 z"
                   transform="scale(0.015625)" />
              </defs>
              <use
                 xlink:href="#ArialMT-30"
                 id="use11" />
              <use
                 xlink:href="#ArialMT-2e"
                 transform="translate(55.615234)"
                 id="use12" />
              <use
                 xlink:href="#ArialMT-38"
                 transform="translate(83.398438)"
                 id="use13" />
            </g>
          </g>
        </g>
        <g
           id="xtick_4">
          <g
             id="line2d_4">
            <g
               id="g14">
              <use
                 xlink:href="#m5f595f715d"
                 x="289.58423"
                 y="298.19748"
                 style="stroke:#000000;stroke-width:0.8"
                 id="use14" />
            </g>
          </g>
          <g
             id="text_4">
            <!-- 1.0 -->
            <g
               transform="matrix(0.1,0,0,-0.1,282.63422,312.35529)"
               id="g17">
              <defs
                 id="defs14">
                <path
                   id="ArialMT-31"
                   d="M 2384,0 H 1822 V 3584 Q 1619,3391 1289,3197 959,3003 697,2906 v 544 q 472,222 825,537 353,316 500,613 h 362 z"
                   transform="scale(0.015625)" />
              </defs>
              <use
                 xlink:href="#ArialMT-31"
                 id="use15" />
              <use
                 xlink:href="#ArialMT-2e"
                 transform="translate(55.615234)"
                 id="use16" />
              <use
                 xlink:href="#ArialMT-30"
                 transform="translate(83.398438)"
                 id="use17" />
            </g>
          </g>
        </g>
        <g
           id="xtick_5">
          <g
             id="line2d_5">
            <g
               id="g18">
              <use
                 xlink:href="#m5f595f715d"
                 x="348.69659"
                 y="298.19748"
                 style="stroke:#000000;stroke-width:0.8"
                 id="use18" />
            </g>
          </g>
          <g
             id="text_5">
            <!-- 1.2 -->
            <g
               transform="matrix(0.1,0,0,-0.1,341.74661,312.35529)"
               id="g21">
              <defs
                 id="defs18">
                <path
                   id="ArialMT-32"
                   d="M 3222,541 V 0 H 194 q -6,203 65,391 116,309 370,609 255,300 737,694 747,612 1009,970 263,358 263,677 0,334 -240,563 -239,230 -623,230 -406,0 -650,-244 -244,-243 -247,-674 l -578,59 q 59,647 446,986 388,339 1042,339 659,0 1043,-366 385,-365 385,-906 0,-275 -113,-541 Q 2991,2522 2730,2228 2469,1934 1863,1422 1356,997 1212,845 1069,694 975,541 Z"
                   transform="scale(0.015625)" />
              </defs>
              <use
                 xlink:href="#ArialMT-31"
                 id="use19" />
              <use
                 xlink:href="#ArialMT-2e"
                 transform="translate(55.615234)"
                 id="use20" />
              <use
                 xlink:href="#ArialMT-32"
                 transform="translate(83.398438)"
                 id="use21" />
            </g>
          </g>
        </g>
        <g
           id="xtick_6">
          <g
             id="line2d_6">
            <g
               id="g22">
              <use
                 xlink:href="#m5f595f715d"
                 x="407.80899"
                 y="298.19748"
                 style="stroke:#000000;stroke-width:0.8"
                 id="use22" />
            </g>
          </g>
          <g
             id="text_6">
            <!-- 1.4 -->
            <g
               transform="matrix(0.1,0,0,-0.1,400.859,312.35529)"
               id="g25">
              <use
                 xlink:href="#ArialMT-31"
                 id="use23" />
              <use
                 xlink:href="#ArialMT-2e"
                 transform="translate(55.615234)"
                 id="use24" />
              <use
                 xlink:href="#ArialMT-34"
                 transform="translate(83.398438)"
                 id="use25" />
            </g>
          </g>
        </g>
        <g
           id="xtick_7">
          <g
             id="line2d_7">
            <g
               id="g26">
              <use
                 xlink:href="#m5f595f715d"
                 x="466.92139"
                 y="298.19748"
                 style="stroke:#000000;stroke-width:0.8"
                 id="use26" />
            </g>
          </g>
          <g
             id="text_7">
            <!-- 1.6 -->
            <g
               transform="matrix(0.1,0,0,-0.1,459.97139,312.35529)"
               id="g29">
              <use
                 xlink:href="#ArialMT-31"
                 id="use27" />
              <use
                 xlink:href="#ArialMT-2e"
                 transform="translate(55.615234)"
                 id="use28" />
              <use
                 xlink:href="#ArialMT-36"
                 transform="translate(83.398438)"
                 id="use29" />
            </g>
          </g>
        </g>
        <g
           id="text_8">
          <!-- Word Length (s) -->
          <g
             transform="matrix(0.1,0,0,-0.1,252.35608,325.62248)"
             id="g44">
            <defs
               id="defs29">
              <path
                 id="ArialMT-57"
                 d="M 1294,0 78,4581 h 622 l 697,-3003 q 112,-472 194,-937 175,734 206,847 l 872,3093 h 731 l 656,-2318 q 247,-863 357,-1622 87,434 228,997 l 718,2943 h 610 L 4713,0 h -585 l -965,3491 q -122,437 -144,537 -72,-315 -135,-537 L 1913,0 Z"
                 transform="scale(0.015625)" />
              <path
                 id="ArialMT-6f"
                 d="m 213,1659 q 0,922 512,1366 428,369 1044,369 684,0 1118,-449 435,-448 435,-1239 0,-640 -192,-1008 Q 2938,331 2570,128 2203,-75 1769,-75 1072,-75 642,372 213,819 213,1659 Z m 578,0 q 0,-637 278,-954 278,-317 700,-317 419,0 697,318 278,319 278,972 0,616 -280,933 -280,317 -695,317 -422,0 -700,-316 -278,-315 -278,-953 z"
                 transform="scale(0.015625)" />
              <path
                 id="ArialMT-72"
                 d="m 416,0 v 3319 h 506 v -503 q 194,353 358,465 164,113 361,113 284,0 578,-181 l -194,-522 q -206,122 -412,122 -185,0 -332,-111 -147,-111 -209,-308 -94,-300 -94,-656 V 0 Z"
                 transform="scale(0.015625)" />
              <path
                 id="ArialMT-64"
                 d="M 2575,0 V 419 Q 2259,-75 1647,-75 1250,-75 917,144 584,363 401,755 q -182,392 -182,901 0,497 165,902 166,405 497,620 332,216 741,216 300,0 534,-127 235,-126 382,-329 v 1643 h 559 V 0 Z M 797,1656 q 0,-637 268,-953 269,-315 635,-315 369,0 626,301 258,302 258,920 0,682 -263,1000 -262,319 -646,319 -375,0 -627,-306 -251,-306 -251,-966 z"
                 transform="scale(0.015625)" />
              <path
                 id="ArialMT-20"
                 transform="scale(0.015625)"
                 d="" />
              <path
                 id="ArialMT-4c"
                 d="m 469,0 v 4581 h 606 V 541 H 3331 V 0 Z"
                 transform="scale(0.015625)" />
              <path
                 id="ArialMT-65"
                 d="m 2694,1069 581,-72 Q 3138,488 2766,206 2394,-75 1816,-75 1088,-75 661,373 234,822 234,1631 q 0,838 431,1300 432,463 1119,463 666,0 1088,-453 422,-453 422,-1275 0,-50 -3,-150 H 816 q 31,-547 309,-838 278,-290 694,-290 309,0 528,162 219,163 347,519 z M 847,1978 h 1853 q -37,419 -212,628 -269,325 -697,325 -388,0 -652,-259 -264,-259 -292,-694 z"
                 transform="scale(0.015625)" />
              <path
                 id="ArialMT-6e"
                 d="m 422,0 v 3319 h 506 v -472 q 366,547 1056,547 300,0 552,-108 252,-108 377,-283 125,-175 175,-415 31,-157 31,-547 V 0 h -563 v 2019 q 0,344 -66,514 -65,170 -232,271 -167,102 -392,102 -360,0 -621,-228 Q 984,2450 984,1813 V 0 Z"
                 transform="scale(0.015625)" />
              <path
                 id="ArialMT-67"
                 d="m 319,-275 547,-81 q 34,-253 190,-369 210,-156 572,-156 391,0 603,156 213,156 288,437 44,172 40,722 Q 2191,0 1641,0 956,0 581,494 206,988 206,1678 q 0,475 172,876 172,402 498,621 327,219 768,219 587,0 969,-475 v 400 h 518 V 450 q 0,-775 -158,-1098 -157,-324 -500,-511 -342,-188 -842,-188 -593,0 -959,267 -366,267 -353,805 z m 465,1994 q 0,-653 259,-953 260,-300 651,-300 387,0 649,298 263,299 263,936 0,609 -270,918 -270,310 -652,310 -375,0 -638,-305 -262,-304 -262,-904 z"
                 transform="scale(0.015625)" />
              <path
                 id="ArialMT-74"
                 d="M 1650,503 1731,6 Q 1494,-44 1306,-44 1000,-44 831,53 663,150 594,308 525,466 525,972 V 2881 H 113 v 438 h 412 v 822 l 559,337 V 3319 h 566 V 2881 H 1084 V 941 q 0,-241 30,-310 30,-68 97,-109 67,-41 192,-41 94,0 247,22 z"
                 transform="scale(0.015625)" />
              <path
                 id="ArialMT-68"
                 d="M 422,0 V 4581 H 984 V 2938 q 394,456 994,456 369,0 641,-146 272,-145 389,-401 117,-256 117,-744 V 0 h -562 v 2103 q 0,422 -183,614 -183,192 -517,192 -250,0 -471,-130 -220,-129 -314,-351 -94,-222 -94,-612 V 0 Z"
                 transform="scale(0.015625)" />
              <path
                 id="ArialMT-28"
                 d="M 1497,-1347 Q 1031,-759 709,28 388,816 388,1659 q 0,744 240,1425 281,791 869,1575 h 403 Q 1522,4009 1400,3731 1209,3300 1100,2831 966,2247 966,1656 966,153 1900,-1347 Z"
                 transform="scale(0.015625)" />
              <path
                 id="ArialMT-73"
                 d="m 197,991 556,87 q 47,-334 261,-512 214,-178 599,-178 387,0 574,157 188,158 188,371 0,190 -166,300 -115,75 -575,190 -618,157 -857,271 -239,114 -363,315 -123,202 -123,446 0,221 101,410 102,190 277,315 131,96 357,163 227,68 487,68 390,0 685,-113 296,-112 436,-305 141,-192 194,-513 l -550,-75 q -37,256 -217,399 -180,144 -508,144 -387,0 -553,-128 -166,-128 -166,-300 0,-109 69,-197 69,-90 216,-150 84,-31 497,-143 597,-160 832,-262 236,-101 370,-295 135,-193 135,-481 0,-281 -164,-530 Q 2625,197 2315,61 2006,-75 1616,-75 969,-75 630,194 291,463 197,991 Z"
                 transform="scale(0.015625)" />
              <path
                 id="ArialMT-29"
                 d="M 791,-1347 H 388 q 934,1500 934,3003 0,588 -134,1166 -107,469 -297,900 -122,281 -503,937 h 403 q 587,-784 868,-1575 241,-681 241,-1425 0,-843 -324,-1631 -323,-787 -785,-1375 z"
                 transform="scale(0.015625)" />
            </defs>
            <use
               xlink:href="#ArialMT-57"
               id="use30" />
            <use
               xlink:href="#ArialMT-6f"
               transform="translate(92.634766)"
               id="use31" />
            <use
               xlink:href="#ArialMT-72"
               transform="translate(148.25)"
               id="use32" />
            <use
               xlink:href="#ArialMT-64"
               transform="translate(181.55078)"
               id="use33" />
            <use
               xlink:href="#ArialMT-20"
               transform="translate(237.16602)"
               id="use34" />
            <use
               xlink:href="#ArialMT-4c"
               transform="translate(264.94922)"
               id="use35" />
            <use
               xlink:href="#ArialMT-65"
               transform="translate(320.56445)"
               id="use36" />
            <use
               xlink:href="#ArialMT-6e"
               transform="translate(376.17969)"
               id="use37" />
            <use
               xlink:href="#ArialMT-67"
               transform="translate(431.79492)"
               id="use38" />
            <use
               xlink:href="#ArialMT-74"
               transform="translate(487.41016)"
               id="use39" />
            <use
               xlink:href="#ArialMT-68"
               transform="translate(515.19336)"
               id="use40" />
            <use
               xlink:href="#ArialMT-20"
               transform="translate(570.80859)"
               id="use41" />
            <use
               xlink:href="#ArialMT-28"
               transform="translate(598.5918)"
               id="use42" />
            <use
               xlink:href="#ArialMT-73"
               transform="translate(631.89258)"
               id="use43" />
            <use
               xlink:href="#ArialMT-29"
               transform="translate(681.89258)"
               id="use44" />
          </g>
        </g>
      </g>
      <g
         id="matplotlib.axis_2">
        <g
           id="ytick_1">
          <g
             id="line2d_8">
            <defs
               id="defs44">
              <path
                 id="mb4461e4806"
                 d="M 0,0 H -3.5"
                 style="stroke:#000000;stroke-width:0.8" />
            </defs>
            <g
               id="g45">
              <use
                 xlink:href="#mb4461e4806"
                 x="76.790001"
                 y="230.02217"
                 style="stroke:#000000;stroke-width:0.8"
                 id="use45" />
            </g>
          </g>
          <g
             id="text_9">
            <!-- normal -->
            <g
               transform="matrix(0.1,0,0,-0.1,39.225938,233.60108)"
               id="g51">
              <defs
                 id="defs45">
                <path
                   id="ArialMT-6d"
                   d="m 422,0 v 3319 h 503 v -466 q 156,244 415,392 260,149 591,149 369,0 605,-153 236,-153 333,-428 394,581 1025,581 494,0 759,-274 266,-273 266,-842 V 0 h -560 v 2091 q 0,337 -55,485 -54,149 -198,239 -143,91 -337,91 -350,0 -582,-233 -231,-232 -231,-745 V 0 h -562 v 2156 q 0,375 -138,562 -137,188 -450,188 -237,0 -439,-125 -201,-125 -292,-366 -91,-240 -91,-693 V 0 Z"
                   transform="scale(0.015625)" />
                <path
                   id="ArialMT-61"
                   d="M 2588,409 Q 2275,144 1986,34 1697,-75 1366,-75 819,-75 525,192 231,459 231,875 q 0,244 111,445 111,202 291,324 180,122 405,184 165,44 500,85 681,81 1003,193 3,116 3,147 0,344 -160,485 -215,190 -640,190 -397,0 -586,-139 -189,-139 -280,-492 l -550,75 q 75,353 247,570 172,217 497,334 325,118 753,118 425,0 690,-100 266,-100 391,-252 125,-151 175,-383 28,-143 28,-518 v -750 q 0,-785 36,-993 36,-207 143,-398 h -588 q -87,175 -112,409 z m -47,1257 q -307,-125 -919,-213 -347,-50 -491,-113 -143,-62 -222,-182 -78,-120 -78,-267 0,-225 170,-375 171,-150 499,-150 325,0 578,142 253,142 372,389 91,191 91,562 z"
                   transform="scale(0.015625)" />
                <path
                   id="ArialMT-6c"
                   d="M 409,0 V 4581 H 972 V 0 Z"
                   transform="scale(0.015625)" />
              </defs>
              <use
                 xlink:href="#ArialMT-6e"
                 id="use46" />
              <use
                 xlink:href="#ArialMT-6f"
                 transform="translate(55.615234)"
                 id="use47" />
              <use
                 xlink:href="#ArialMT-72"
                 transform="translate(111.23047)"
                 id="use48" />
              <use
                 xlink:href="#ArialMT-6d"
                 transform="translate(144.53125)"
                 id="use49" />
              <use
                 xlink:href="#ArialMT-61"
                 transform="translate(227.83203)"
                 id="use50" />
              <use
                 xlink:href="#ArialMT-6c"
                 transform="translate(283.44727)"
                 id="use51" />
            </g>
          </g>
        </g>
        <g
           id="ytick_2">
          <g
             id="line2d_9">
            <g
               id="g52">
              <use
                 xlink:href="#mb4461e4806"
                 x="76.790001"
                 y="93.671555"
                 style="stroke:#000000;stroke-width:0.8"
                 id="use52" />
            </g>
          </g>
          <g
             id="text_10">
            <!-- sigmatism -->
            <g
               transform="matrix(0.1,0,0,-0.1,24.786875,97.250464)"
               id="g61">
              <defs
                 id="defs52">
                <path
                   id="ArialMT-69"
                   d="m 425,3934 v 647 H 988 V 3934 Z M 425,0 V 3319 H 988 V 0 Z"
                   transform="scale(0.015625)" />
              </defs>
              <use
                 xlink:href="#ArialMT-73"
                 id="use53" />
              <use
                 xlink:href="#ArialMT-69"
                 transform="translate(50)"
                 id="use54" />
              <use
                 xlink:href="#ArialMT-67"
                 transform="translate(72.216797)"
                 id="use55" />
              <use
                 xlink:href="#ArialMT-6d"
                 transform="translate(127.83203)"
                 id="use56" />
              <use
                 xlink:href="#ArialMT-61"
                 transform="translate(211.13281)"
                 id="use57" />
              <use
                 xlink:href="#ArialMT-74"
                 transform="translate(266.74805)"
                 id="use58" />
              <use
                 xlink:href="#ArialMT-69"
                 transform="translate(294.53125)"
                 id="use59" />
              <use
                 xlink:href="#ArialMT-73"
                 transform="translate(316.74805)"
                 id="use60" />
              <use
                 xlink:href="#ArialMT-6d"
                 transform="translate(366.74805)"
                 id="use61" />
            </g>
          </g>
        </g>
        <g
           id="text_11">
          <!-- Label -->
          <g
             transform="matrix(0,-0.1,-0.1,0,18.799375,174.07968)"
             id="g66">
            <defs
               id="defs61">
              <path
                 id="ArialMT-62"
                 d="M 941,0 H 419 V 4581 H 981 V 2947 q 357,447 910,447 306,0 579,-124 274,-123 450,-347 177,-223 277,-539 100,-315 100,-675 0,-853 -422,-1319 -422,-465 -1012,-465 -588,0 -922,491 z m -7,1684 q 0,-596 163,-862 266,-434 719,-434 368,0 637,320 269,320 269,955 0,650 -258,959 -258,309 -623,309 -369,0 -638,-320 -269,-320 -269,-927 z"
                 transform="scale(0.015625)" />
            </defs>
            <use
               xlink:href="#ArialMT-4c"
               id="use62" />
            <use
               xlink:href="#ArialMT-61"
               transform="translate(55.615234)"
               id="use63" />
            <use
               xlink:href="#ArialMT-62"
               transform="translate(111.23047)"
               id="use64" />
            <use
               xlink:href="#ArialMT-65"
               transform="translate(166.8457)"
               id="use65" />
            <use
               xlink:href="#ArialMT-6c"
               transform="translate(222.46094)"
               id="use66" />
          </g>
        </g>
      </g>
      <g
         id="line2d_10">
        <path
           d="m 208.30803,240.24847 v -20.45259 h 76.84611 v 20.45259 h -76.84611"
           clip-path="url(#p3c7d05ef3f)"
           style="fill:none;stroke:#000000;stroke-linecap:square"
           id="path66" />
      </g>
      <g
         id="line2d_11">
        <path
           d="M 208.30803,230.02217 H 107.81697"
           clip-path="url(#p3c7d05ef3f)"
           style="fill:none;stroke:#000000;stroke-linecap:square"
           id="path67" />
      </g>
      <g
         id="line2d_12">
        <path
           d="M 285.15414,230.02217 H 400.4233"
           clip-path="url(#p3c7d05ef3f)"
           style="fill:none;stroke:#000000;stroke-linecap:square"
           id="path68" />
      </g>
      <g
         id="line2d_13">
        <path
           d="M 107.81697,235.13532 V 224.90903"
           clip-path="url(#p3c7d05ef3f)"
           style="fill:none;stroke:#000000;stroke-linecap:square"
           id="path69" />
      </g>
      <g
         id="line2d_14">
        <path
           d="M 400.4233,235.13532 V 224.90903"
           clip-path="url(#p3c7d05ef3f)"
           style="fill:none;stroke:#000000;stroke-linecap:square"
           id="path70" />
      </g>
      <g
         id="line2d_15">
        <defs
           id="defs70">
          <path
             id="me9d1590586"
             d="M 0,3 C 0.795609,3 1.55874,2.683901 2.12132,2.12132 2.683901,1.55874 3,0.795609 3,0 3,-0.795609 2.683901,-1.55874 2.12132,-2.12132 1.55874,-2.683901 0.795609,-3 0,-3 -0.795609,-3 -1.55874,-2.683901 -2.12132,-2.12132 -2.683901,-1.55874 -3,-0.795609 -3,0 -3,0.795609 -2.683901,1.55874 -2.12132,2.12132 -1.55874,2.683901 -0.795609,3 0,3 Z"
             style="stroke:#000000" />
        </defs>
        <g
           clip-path="url(#p3c7d05ef3f)"
           id="g80">
          <use
             xlink:href="#me9d1590586"
             x="403.37891"
             y="230.02217"
             style="fill-opacity:0;stroke:#000000"
             id="use70" />
          <use
             xlink:href="#me9d1590586"
             x="441.80197"
             y="230.02217"
             style="fill-opacity:0;stroke:#000000"
             id="use71" />
          <use
             xlink:href="#me9d1590586"
             x="462.4913"
             y="230.02217"
             style="fill-opacity:0;stroke:#000000"
             id="use72" />
          <use
             xlink:href="#me9d1590586"
             x="403.37891"
             y="230.02217"
             style="fill-opacity:0;stroke:#000000"
             id="use73" />
          <use
             xlink:href="#me9d1590586"
             x="427.02386"
             y="230.02217"
             style="fill-opacity:0;stroke:#000000"
             id="use74" />
          <use
             xlink:href="#me9d1590586"
             x="444.7576"
             y="230.02217"
             style="fill-opacity:0;stroke:#000000"
             id="use75" />
          <use
             xlink:href="#me9d1590586"
             x="421.11264"
             y="230.02217"
             style="fill-opacity:0;stroke:#000000"
             id="use76" />
          <use
             xlink:href="#me9d1590586"
             x="424.06827"
             y="230.02217"
             style="fill-opacity:0;stroke:#000000"
             id="use77" />
          <use
             xlink:href="#me9d1590586"
             x="438.84634"
             y="230.02217"
             style="fill-opacity:0;stroke:#000000"
             id="use78" />
          <use
             xlink:href="#me9d1590586"
             x="444.7576"
             y="230.02217"
             style="fill-opacity:0;stroke:#000000"
             id="use79" />
          <use
             xlink:href="#me9d1590586"
             x="456.58008"
             y="230.02217"
             style="fill-opacity:0;stroke:#000000"
             id="use80" />
        </g>
      </g>
      <g
         id="line2d_16">
        <path
           d="M 196.48555,103.89785 V 83.445261 h 94.57983 v 20.452589 h -94.57983"
           clip-path="url(#p3c7d05ef3f)"
           style="fill:none;stroke:#000000;stroke-linecap:square"
           id="path80" />
      </g>
      <g
         id="line2d_17">
        <path
           d="M 196.48555,93.671558 H 96.001192"
           clip-path="url(#p3c7d05ef3f)"
           style="fill:none;stroke:#000000;stroke-linecap:square"
           id="path81" />
      </g>
      <g
         id="line2d_18">
        <path
           d="M 291.06538,93.671558 H 429.9795"
           clip-path="url(#p3c7d05ef3f)"
           style="fill:none;stroke:#000000;stroke-linecap:square"
           id="path82" />
      </g>
      <g
         id="line2d_19">
        <path
           d="M 96.001192,98.784706 V 88.55841"
           clip-path="url(#p3c7d05ef3f)"
           style="fill:none;stroke:#000000;stroke-linecap:square"
           id="path83" />
      </g>
      <g
         id="line2d_20">
        <path
           d="M 429.9795,98.784706 V 88.55841"
           clip-path="url(#p3c7d05ef3f)"
           style="fill:none;stroke:#000000;stroke-linecap:square"
           id="path84" />
      </g>
      <g
         id="line2d_21">
        <g
           clip-path="url(#p3c7d05ef3f)"
           id="g106">
          <use
             xlink:href="#me9d1590586"
             x="477.26941"
             y="93.671555"
             style="fill-opacity:0;stroke:#000000"
             id="use84" />
          <use
             xlink:href="#me9d1590586"
             x="462.4913"
             y="93.671555"
             style="fill-opacity:0;stroke:#000000"
             id="use85" />
          <use
             xlink:href="#me9d1590586"
             x="462.4913"
             y="93.671555"
             style="fill-opacity:0;stroke:#000000"
             id="use86" />
          <use
             xlink:href="#me9d1590586"
             x="453.62445"
             y="93.671555"
             style="fill-opacity:0;stroke:#000000"
             id="use87" />
          <use
             xlink:href="#me9d1590586"
             x="480.22504"
             y="93.671555"
             style="fill-opacity:0;stroke:#000000"
             id="use88" />
          <use
             xlink:href="#me9d1590586"
             x="444.7576"
             y="93.671555"
             style="fill-opacity:0;stroke:#000000"
             id="use89" />
          <use
             xlink:href="#me9d1590586"
             x="438.84634"
             y="93.671555"
             style="fill-opacity:0;stroke:#000000"
             id="use90" />
          <use
             xlink:href="#me9d1590586"
             x="435.89075"
             y="93.671555"
             style="fill-opacity:0;stroke:#000000"
             id="use91" />
          <use
             xlink:href="#me9d1590586"
             x="438.84634"
             y="93.671555"
             style="fill-opacity:0;stroke:#000000"
             id="use92" />
          <use
             xlink:href="#me9d1590586"
             x="441.80197"
             y="93.671555"
             style="fill-opacity:0;stroke:#000000"
             id="use93" />
          <use
             xlink:href="#me9d1590586"
             x="450.66882"
             y="93.671555"
             style="fill-opacity:0;stroke:#000000"
             id="use94" />
          <use
             xlink:href="#me9d1590586"
             x="441.80197"
             y="93.671555"
             style="fill-opacity:0;stroke:#000000"
             id="use95" />
          <use
             xlink:href="#me9d1590586"
             x="444.7576"
             y="93.671555"
             style="fill-opacity:0;stroke:#000000"
             id="use96" />
          <use
             xlink:href="#me9d1590586"
             x="480.22504"
             y="93.671555"
             style="fill-opacity:0;stroke:#000000"
             id="use97" />
          <use
             xlink:href="#me9d1590586"
             x="432.93512"
             y="93.671555"
             style="fill-opacity:0;stroke:#000000"
             id="use98" />
          <use
             xlink:href="#me9d1590586"
             x="435.89075"
             y="93.671555"
             style="fill-opacity:0;stroke:#000000"
             id="use99" />
          <use
             xlink:href="#me9d1590586"
             x="447.71323"
             y="93.671555"
             style="fill-opacity:0;stroke:#000000"
             id="use100" />
          <use
             xlink:href="#me9d1590586"
             x="480.22504"
             y="93.671555"
             style="fill-opacity:0;stroke:#000000"
             id="use101" />
          <use
             xlink:href="#me9d1590586"
             x="453.62445"
             y="93.671555"
             style="fill-opacity:0;stroke:#000000"
             id="use102" />
          <use
             xlink:href="#me9d1590586"
             x="465.44693"
             y="93.671555"
             style="fill-opacity:0;stroke:#000000"
             id="use103" />
          <use
             xlink:href="#me9d1590586"
             x="438.84634"
             y="93.671555"
             style="fill-opacity:0;stroke:#000000"
             id="use104" />
          <use
             xlink:href="#me9d1590586"
             x="435.89075"
             y="93.671555"
             style="fill-opacity:0;stroke:#000000"
             id="use105" />
          <use
             xlink:href="#me9d1590586"
             x="444.7576"
             y="93.671555"
             style="fill-opacity:0;stroke:#000000"
             id="use106" />
        </g>
      </g>
      <g
         id="line2d_22">
        <path
           d="M 249.6867,240.24847 V 219.79588"
           clip-path="url(#p3c7d05ef3f)"
           style="fill:none;stroke:#ff7f0e"
           id="path106" />
      </g>
      <g
         id="line2d_23">
        <path
           d="M 243.77547,103.89785 V 83.445261"
           clip-path="url(#p3c7d05ef3f)"
           style="fill:none;stroke:#ff7f0e"
           id="path107" />
      </g>
      <g
         id="patch_3">
        <path
           d="M 76.79,298.19748 V 25.49625"
           style="fill:none;stroke:#000000;stroke-width:0.8;stroke-linecap:square;stroke-linejoin:miter"
           id="path108" />
      </g>
      <g
         id="patch_4">
        <path
           d="M 499.43622,298.19748 V 25.49625"
           style="fill:none;stroke:#000000;stroke-width:0.8;stroke-linecap:square;stroke-linejoin:miter"
           id="path109" />
      </g>
      <g
         id="patch_5">
        <path
           d="M 76.79,298.19748 H 499.43622"
           style="fill:none;stroke:#000000;stroke-width:0.8;stroke-linecap:square;stroke-linejoin:miter"
           id="path110" />
      </g>
      <g
         id="patch_6">
        <path
           d="M 76.79,25.49625 H 499.43622"
           style="fill:none;stroke:#000000;stroke-width:0.8;stroke-linecap:square;stroke-linejoin:miter"
           id="path111" />
      </g>
      <g
         id="text_12">
        <!-- Distribution of word lengths by label -->
        <g
           transform="matrix(0.12,0,0,-0.12,193.40217,19.49625)"
           id="g147">
          <defs
             id="defs111">
            <path
               id="ArialMT-44"
               d="m 494,0 v 4581 h 1578 q 534,0 816,-65 393,-91 671,-328 363,-307 542,-784 180,-476 180,-1088 0,-522 -122,-925 Q 4038,988 3847,723 3656,459 3429,307 3203,156 2883,78 2563,0 2147,0 Z m 606,541 h 978 q 453,0 711,84 258,84 411,238 216,215 336,579 120,364 120,883 0,719 -236,1105 -236,386 -573,517 -244,94 -784,94 h -963 z"
               transform="scale(0.015625)" />
            <path
               id="ArialMT-75"
               d="M 2597,0 V 488 Q 2209,-75 1544,-75 1250,-75 995,37 741,150 617,320 494,491 444,738 409,903 409,1263 V 3319 H 972 V 1478 q 0,-440 34,-594 53,-221 225,-348 172,-127 425,-127 253,0 475,130 222,130 314,353 93,224 93,649 v 1778 h 562 V 0 Z"
               transform="scale(0.015625)" />
            <path
               id="ArialMT-66"
               d="M 556,0 V 2881 H 59 v 438 h 497 v 353 q 0,334 60,497 81,219 285,354 205,136 574,136 238,0 525,-56 l -84,-490 q -175,31 -332,31 -256,0 -362,-110 -106,-109 -106,-409 v -306 h 647 V 2881 H 1116 V 0 Z"
               transform="scale(0.015625)" />
            <path
               id="ArialMT-77"
               d="M 1034,0 19,3319 h 581 l 528,-1916 197,-712 q 13,53 172,684 l 528,1944 h 578 l 497,-1925 166,-635 190,641 569,1919 h 547 L 3534,0 H 2950 L 2422,1988 2294,2553 1622,0 Z"
               transform="scale(0.015625)" />
            <path
               id="ArialMT-79"
               d="m 397,-1278 -63,528 q 185,-50 322,-50 188,0 300,63 113,62 185,174 53,85 172,419 15,47 50,138 L 103,3319 h 606 l 691,-1922 q 134,-366 241,-769 97,388 231,756 l 709,1935 h 563 L 1881,-56 q -203,-547 -315,-753 -150,-279 -344,-408 -194,-130 -463,-130 -162,0 -362,69 z"
               transform="scale(0.015625)" />
          </defs>
          <use
             xlink:href="#ArialMT-44"
             id="use111" />
          <use
             xlink:href="#ArialMT-69"
             transform="translate(72.216797)"
             id="use112" />
          <use
             xlink:href="#ArialMT-73"
             transform="translate(94.433594)"
             id="use113" />
          <use
             xlink:href="#ArialMT-74"
             transform="translate(144.43359)"
             id="use114" />
          <use
             xlink:href="#ArialMT-72"
             transform="translate(172.2168)"
             id="use115" />
          <use
             xlink:href="#ArialMT-69"
             transform="translate(205.51758)"
             id="use116" />
          <use
             xlink:href="#ArialMT-62"
             transform="translate(227.73437)"
             id="use117" />
          <use
             xlink:href="#ArialMT-75"
             transform="translate(283.34961)"
             id="use118" />
          <use
             xlink:href="#ArialMT-74"
             transform="translate(338.96484)"
             id="use119" />
          <use
             xlink:href="#ArialMT-69"
             transform="translate(366.74805)"
             id="use120" />
          <use
             xlink:href="#ArialMT-6f"
             transform="translate(388.96484)"
             id="use121" />
          <use
             xlink:href="#ArialMT-6e"
             transform="translate(444.58008)"
             id="use122" />
          <use
             xlink:href="#ArialMT-20"
             transform="translate(500.19531)"
             id="use123" />
          <use
             xlink:href="#ArialMT-6f"
             transform="translate(527.97852)"
             id="use124" />
          <use
             xlink:href="#ArialMT-66"
             transform="translate(583.59375)"
             id="use125" />
          <use
             xlink:href="#ArialMT-20"
             transform="translate(611.37695)"
             id="use126" />
          <use
             xlink:href="#ArialMT-77"
             transform="translate(639.16016)"
             id="use127" />
          <use
             xlink:href="#ArialMT-6f"
             transform="translate(711.37695)"
             id="use128" />
          <use
             xlink:href="#ArialMT-72"
             transform="translate(766.99219)"
             id="use129" />
          <use
             xlink:href="#ArialMT-64"
             transform="translate(800.29297)"
             id="use130" />
          <use
             xlink:href="#ArialMT-20"
             transform="translate(855.9082)"
             id="use131" />
          <use
             xlink:href="#ArialMT-6c"
             transform="translate(883.69141)"
             id="use132" />
          <use
             xlink:href="#ArialMT-65"
             transform="translate(905.9082)"
             id="use133" />
          <use
             xlink:href="#ArialMT-6e"
             transform="translate(961.52344)"
             id="use134" />
          <use
             xlink:href="#ArialMT-67"
             transform="translate(1017.1387)"
             id="use135" />
          <use
             xlink:href="#ArialMT-74"
             transform="translate(1072.7539)"
             id="use136" />
          <use
             xlink:href="#ArialMT-68"
             transform="translate(1100.5371)"
             id="use137" />
          <use
             xlink:href="#ArialMT-73"
             transform="translate(1156.1523)"
             id="use138" />
          <use
             xlink:href="#ArialMT-20"
             transform="translate(1206.1523)"
             id="use139" />
          <use
             xlink:href="#ArialMT-62"
             transform="translate(1233.9355)"
             id="use140" />
          <use
             xlink:href="#ArialMT-79"
             transform="translate(1289.5508)"
             id="use141" />
          <use
             xlink:href="#ArialMT-20"
             transform="translate(1339.5508)"
             id="use142" />
          <use
             xlink:href="#ArialMT-6c"
             transform="translate(1367.334)"
             id="use143" />
          <use
             xlink:href="#ArialMT-61"
             transform="translate(1389.5508)"
             id="use144" />
          <use
             xlink:href="#ArialMT-62"
             transform="translate(1445.166)"
             id="use145" />
          <use
             xlink:href="#ArialMT-65"
             transform="translate(1500.7813)"
             id="use146" />
          <use
             xlink:href="#ArialMT-6c"
             transform="translate(1556.3965)"
             id="use147" />
        </g>
      </g>
    </g>
  </g>
  <defs
     id="defs147">
    <clipPath
       id="p3c7d05ef3f">
      <rect
         x="76.790001"
         y="25.49625"
         width="422.64621"
         height="272.70123"
         id="rect147" />
    </clipPath>
  </defs>
</svg>
