<?xml version="1.0" encoding="utf-8" standalone="no"?>
<!DOCTYPE svg PUBLIC "-//W3C//DTD SVG 1.1//EN"
  "http://www.w3.org/Graphics/SVG/1.1/DTD/svg11.dtd">
<svg xmlns:xlink="http://www.w3.org/1999/xlink" width="339.84pt" height="339.84pt" viewBox="0 0 339.84 339.84" xmlns="http://www.w3.org/2000/svg" version="1.1">
 <metadata>
  <rdf:RDF xmlns:dc="http://purl.org/dc/elements/1.1/" xmlns:cc="http://creativecommons.org/ns#" xmlns:rdf="http://www.w3.org/1999/02/22-rdf-syntax-ns#">
   <cc:Work>
    <dc:type rdf:resource="http://purl.org/dc/dcmitype/StillImage"/>
    <dc:date>2025-03-04T10:08:16.517854</dc:date>
    <dc:format>image/svg+xml</dc:format>
    <dc:creator>
     <cc:Agent>
      <dc:title>Matplotlib v3.10.0, https://matplotlib.org/</dc:title>
     </cc:Agent>
    </dc:creator>
   </cc:Work>
  </rdf:RDF>
 </metadata>
 <defs>
  <style type="text/css">*{stroke-linejoin: round; stroke-linecap: butt}</style>
 </defs>
 <g id="figure_1">
  <g id="patch_1">
   <path d="M 0 339.84 
L 339.84 339.84 
L 339.84 0 
L 0 0 
z
" style="fill: #ffffff"/>
  </g>
  <g id="axes_1">
   <g id="patch_2">
    <path d="M 42.48 302.4576 
L 305.856 302.4576 
L 305.856 40.7808 
L 42.48 40.7808 
z
" style="fill: #ffffff"/>
   </g>
   <g id="matplotlib.axis_1">
    <g id="text_1">
     <text style="font-size: 10px; font-family: 'Arial'; text-anchor: middle" x="174.168" y="313.737287" transform="rotate(-0 174.168 313.737287)">Speaker</text>
    </g>
   </g>
   <g id="matplotlib.axis_2">
    <g id="ytick_1">
     <g id="line2d_1">
      <defs>
       <path id="m4eb43b67ba" d="M 0 0 
L -3.5 0 
" style="stroke: #000000; stroke-width: 0.8"/>
      </defs>
      <g>
       <use xlink:href="#m4eb43b67ba" x="42.48" y="291.389245" style="stroke: #000000; stroke-width: 0.8"/>
      </g>
     </g>
     <g id="text_2">
      <text style="font-size: 10px; font-family: 'Arial'; text-anchor: end" x="35.48" y="294.968151" transform="rotate(-0 35.48 294.968151)">0</text>
     </g>
    </g>
    <g id="ytick_2">
     <g id="line2d_2">
      <g>
       <use xlink:href="#m4eb43b67ba" x="42.48" y="252.675893" style="stroke: #000000; stroke-width: 0.8"/>
      </g>
     </g>
     <g id="text_3">
      <text style="font-size: 10px; font-family: 'Arial'; text-anchor: end" x="35.48" y="256.254799" transform="rotate(-0 35.48 256.254799)">5</text>
     </g>
    </g>
    <g id="ytick_3">
     <g id="line2d_3">
      <g>
       <use xlink:href="#m4eb43b67ba" x="42.48" y="213.96254" style="stroke: #000000; stroke-width: 0.8"/>
      </g>
     </g>
     <g id="text_4">
      <text style="font-size: 10px; font-family: 'Arial'; text-anchor: end" x="35.48" y="217.541447" transform="rotate(-0 35.48 217.541447)">10</text>
     </g>
    </g>
    <g id="ytick_4">
     <g id="line2d_4">
      <g>
       <use xlink:href="#m4eb43b67ba" x="42.48" y="175.249188" style="stroke: #000000; stroke-width: 0.8"/>
      </g>
     </g>
     <g id="text_5">
      <text style="font-size: 10px; font-family: 'Arial'; text-anchor: end" x="35.48" y="178.828094" transform="rotate(-0 35.48 178.828094)">15</text>
     </g>
    </g>
    <g id="ytick_5">
     <g id="line2d_5">
      <g>
       <use xlink:href="#m4eb43b67ba" x="42.48" y="136.535836" style="stroke: #000000; stroke-width: 0.8"/>
      </g>
     </g>
     <g id="text_6">
      <text style="font-size: 10px; font-family: 'Arial'; text-anchor: end" x="35.48" y="140.114742" transform="rotate(-0 35.48 140.114742)">20</text>
     </g>
    </g>
    <g id="ytick_6">
     <g id="line2d_6">
      <g>
       <use xlink:href="#m4eb43b67ba" x="42.48" y="97.822484" style="stroke: #000000; stroke-width: 0.8"/>
      </g>
     </g>
     <g id="text_7">
      <text style="font-size: 10px; font-family: 'Arial'; text-anchor: end" x="35.48" y="101.40139" transform="rotate(-0 35.48 101.40139)">25</text>
     </g>
    </g>
    <g id="ytick_7">
     <g id="line2d_7">
      <g>
       <use xlink:href="#m4eb43b67ba" x="42.48" y="59.109131" style="stroke: #000000; stroke-width: 0.8"/>
      </g>
     </g>
     <g id="text_8">
      <text style="font-size: 10px; font-family: 'Arial'; text-anchor: end" x="35.48" y="62.688038" transform="rotate(-0 35.48 62.688038)">30</text>
     </g>
    </g>
    <g id="text_9">
     <text style="font-size: 10px; font-family: 'Arial'; text-anchor: middle" x="18.253437" y="171.6192" transform="rotate(-90 18.253437 171.6192)">Mean FID (across words)</text>
    </g>
   </g>
   <g id="patch_3">
    <path d="M 154.4148 287.12464 
L 193.9212 287.12464 
L 193.9212 216.029747 
L 154.4148 216.029747 
L 154.4148 287.12464 
z
" clip-path="url(#p3355c30beb)" style="fill: #1f77b4; stroke: #000000; stroke-linejoin: miter"/>
   </g>
   <g id="line2d_8">
    <path d="M 174.168 287.12464 
L 174.168 290.5632 
" clip-path="url(#p3355c30beb)" style="fill: none; stroke: #000000; stroke-linecap: square"/>
   </g>
   <g id="line2d_9">
    <path d="M 174.168 216.029747 
L 174.168 132.100881 
" clip-path="url(#p3355c30beb)" style="fill: none; stroke: #000000; stroke-linecap: square"/>
   </g>
   <g id="line2d_10">
    <path d="M 164.2914 290.5632 
L 184.0446 290.5632 
" clip-path="url(#p3355c30beb)" style="fill: none; stroke: #000000; stroke-linecap: square"/>
   </g>
   <g id="line2d_11">
    <path d="M 164.2914 132.100881 
L 184.0446 132.100881 
" clip-path="url(#p3355c30beb)" style="fill: none; stroke: #000000; stroke-linecap: square"/>
   </g>
   <g id="line2d_12">
    <defs>
     <path id="m2f50a9f496" d="M 0 3 
C 0.795609 3 1.55874 2.683901 2.12132 2.12132 
C 2.683901 1.55874 3 0.795609 3 0 
C 3 -0.795609 2.683901 -1.55874 2.12132 -2.12132 
C 1.55874 -2.683901 0.795609 -3 0 -3 
C -0.795609 -3 -1.55874 -2.683901 -2.12132 -2.12132 
C -2.683901 -1.55874 -3 -0.795609 -3 0 
C -3 0.795609 -2.683901 1.55874 -2.12132 2.12132 
C -1.55874 2.683901 -0.795609 3 0 3 
z
" style="stroke: #000000"/>
    </defs>
    <g clip-path="url(#p3355c30beb)">
     <use xlink:href="#m2f50a9f496" x="174.168" y="52.6752" style="fill-opacity: 0; stroke: #000000"/>
     <use xlink:href="#m2f50a9f496" x="174.168" y="99.468204" style="fill-opacity: 0; stroke: #000000"/>
     <use xlink:href="#m2f50a9f496" x="174.168" y="57.599924" style="fill-opacity: 0; stroke: #000000"/>
     <use xlink:href="#m2f50a9f496" x="174.168" y="95.628379" style="fill-opacity: 0; stroke: #000000"/>
    </g>
   </g>
   <g id="line2d_13">
    <path d="M 154.4148 260.6742 
L 193.9212 260.6742 
" clip-path="url(#p3355c30beb)" style="fill: none; stroke: #ff7f0e"/>
   </g>
   <g id="line2d_14">
    <defs>
     <path id="m8e332b34f3" d="M 0 -3 
L -3 3 
L 3 3 
z
" style="stroke: #2ca02c; stroke-linejoin: miter"/>
    </defs>
    <g clip-path="url(#p3355c30beb)">
     <use xlink:href="#m8e332b34f3" x="174.168" y="239.481322" style="fill: #2ca02c; stroke: #2ca02c; stroke-linejoin: miter"/>
    </g>
   </g>
   <g id="patch_4">
    <path d="M 42.48 302.4576 
L 42.48 40.7808 
" style="fill: none; stroke: #000000; stroke-width: 0.8; stroke-linejoin: miter; stroke-linecap: square"/>
   </g>
   <g id="patch_5">
    <path d="M 305.856 302.4576 
L 305.856 40.7808 
" style="fill: none; stroke: #000000; stroke-width: 0.8; stroke-linejoin: miter; stroke-linecap: square"/>
   </g>
   <g id="patch_6">
    <path d="M 42.48 302.4576 
L 305.856 302.4576 
" style="fill: none; stroke: #000000; stroke-width: 0.8; stroke-linejoin: miter; stroke-linecap: square"/>
   </g>
   <g id="patch_7">
    <path d="M 42.48 40.7808 
L 305.856 40.7808 
" style="fill: none; stroke: #000000; stroke-width: 0.8; stroke-linejoin: miter; stroke-linecap: square"/>
   </g>
  </g>
 </g>
 <defs>
  <clipPath id="p3355c30beb">
   <rect x="42.48" y="40.7808" width="263.376" height="261.6768"/>
  </clipPath>
 </defs>
</svg>
